<?xml version="1.0" encoding="UTF-8"?> <svg xmlns="http://www.w3.org/2000/svg" width="3178" height="436" viewBox="0 0 3178 436" fill="none"> <path d="M1870 0H1434V436H1870V0Z" fill="#C46379"></path> <path d="M1497.42 317.309H1517.32V320.824H1501.3V329.535H1515.39V332.953H1501.3V346H1497.42V317.309Z" fill="white"></path> <path d="M1521.13 325.082H1524.47V328.695C1524.74 327.992 1525.41 327.139 1526.48 326.137C1527.55 325.121 1528.78 324.613 1530.17 324.613C1530.24 324.613 1530.35 324.62 1530.5 324.633C1530.66 324.646 1530.93 324.672 1531.3 324.711V328.422C1531.1 328.383 1530.9 328.357 1530.72 328.344C1530.55 328.331 1530.36 328.324 1530.15 328.324C1528.38 328.324 1527.02 328.897 1526.07 330.043C1525.12 331.176 1524.64 332.484 1524.64 333.969V346H1521.13V325.082Z" fill="white"></path> <path d="M1537.87 325.082V338.969C1537.87 340.036 1538.04 340.909 1538.38 341.586C1539 342.836 1540.17 343.461 1541.87 343.461C1544.32 343.461 1545.99 342.367 1546.87 340.18C1547.35 339.008 1547.59 337.4 1547.59 335.355V325.082H1551.11V346H1547.79L1547.83 342.914C1547.37 343.708 1546.81 344.379 1546.13 344.926C1544.79 346.02 1543.16 346.566 1541.25 346.566C1538.26 346.566 1536.23 345.57 1535.15 343.578C1534.57 342.51 1534.27 341.085 1534.27 339.301V325.082H1537.87Z" fill="white"></path> <path d="M1556.62 325.18H1560.19V346H1556.62V325.18ZM1556.62 317.309H1560.19V321.293H1556.62V317.309Z" fill="white"></path> <path d="M1566.23 319.242H1569.78V325.082H1573.12V327.953H1569.78V341.605C1569.78 342.335 1570.03 342.823 1570.52 343.07C1570.8 343.214 1571.25 343.285 1571.89 343.285C1572.06 343.285 1572.24 343.285 1572.44 343.285C1572.63 343.272 1572.86 343.253 1573.12 343.227V346C1572.72 346.117 1572.29 346.202 1571.85 346.254C1571.42 346.306 1570.95 346.332 1570.45 346.332C1568.8 346.332 1567.69 345.915 1567.11 345.082C1566.52 344.236 1566.23 343.142 1566.23 341.801V327.953H1563.39V325.082H1566.23V319.242Z" fill="white"></path> <path d="M1599.27 342.68C1600.59 342.68 1601.67 342.543 1602.52 342.27C1604.03 341.762 1605.26 340.785 1606.23 339.34C1606.99 338.181 1607.55 336.697 1607.89 334.887C1608.08 333.806 1608.18 332.803 1608.18 331.879C1608.18 328.324 1607.47 325.564 1606.05 323.598C1604.64 321.632 1602.37 320.648 1599.23 320.648H1592.34V342.68H1599.27ZM1588.43 317.309H1600.05C1604 317.309 1607.06 318.708 1609.23 321.508C1611.17 324.034 1612.14 327.27 1612.14 331.215C1612.14 334.262 1611.57 337.016 1610.43 339.477C1608.41 343.826 1604.94 346 1600.02 346H1588.43V317.309Z" fill="white"></path> <path d="M1625 343.734C1627.33 343.734 1628.92 342.855 1629.78 341.098C1630.65 339.327 1631.09 337.361 1631.09 335.199C1631.09 333.246 1630.78 331.658 1630.15 330.434C1629.16 328.507 1627.46 327.543 1625.04 327.543C1622.89 327.543 1621.32 328.363 1620.35 330.004C1619.37 331.645 1618.88 333.624 1618.88 335.941C1618.88 338.168 1619.37 340.023 1620.35 341.508C1621.32 342.992 1622.87 343.734 1625 343.734ZM1625.13 324.477C1627.83 324.477 1630.11 325.375 1631.97 327.172C1633.83 328.969 1634.76 331.612 1634.76 335.102C1634.76 338.474 1633.94 341.26 1632.3 343.461C1630.66 345.661 1628.11 346.762 1624.66 346.762C1621.79 346.762 1619.5 345.792 1617.81 343.852C1616.12 341.898 1615.27 339.281 1615.27 336C1615.27 332.484 1616.16 329.685 1617.95 327.602C1619.73 325.518 1622.12 324.477 1625.13 324.477Z" fill="white"></path> <path d="M1640.68 325.082L1646.27 342.113L1652.11 325.082H1655.95L1648.06 346H1644.31L1636.6 325.082H1640.68Z" fill="white"></path> <path d="M1667.67 324.613C1669.16 324.613 1670.6 324.965 1671.99 325.668C1673.38 326.358 1674.44 327.257 1675.17 328.363C1675.88 329.418 1676.34 330.648 1676.58 332.055C1676.79 333.018 1676.89 334.555 1676.89 336.664H1661.56C1661.62 338.786 1662.12 340.492 1663.06 341.781C1664 343.057 1665.45 343.695 1667.42 343.695C1669.25 343.695 1670.72 343.09 1671.81 341.879C1672.44 341.176 1672.88 340.362 1673.14 339.438H1676.6C1676.51 340.206 1676.2 341.065 1675.68 342.016C1675.17 342.953 1674.6 343.721 1673.96 344.32C1672.89 345.362 1671.57 346.065 1670 346.43C1669.15 346.638 1668.19 346.742 1667.12 346.742C1664.52 346.742 1662.31 345.798 1660.5 343.91C1658.69 342.009 1657.79 339.353 1657.79 335.941C1657.79 332.582 1658.7 329.854 1660.52 327.758C1662.35 325.661 1664.73 324.613 1667.67 324.613ZM1673.28 333.871C1673.13 332.348 1672.8 331.13 1672.28 330.219C1671.32 328.526 1669.71 327.68 1667.46 327.68C1665.84 327.68 1664.49 328.266 1663.39 329.438C1662.3 330.596 1661.72 332.074 1661.66 333.871H1673.28Z" fill="white"></path> <path d="M1497.83 261.195V258.5C1500.37 258.253 1502.14 257.842 1503.14 257.27C1504.14 256.684 1504.89 255.31 1505.39 253.148H1508.16V281H1504.41V261.195H1497.83Z" fill="white"></path> <path d="M1537.18 253.5V256.566C1536.29 257.439 1535.09 258.956 1533.59 261.117C1532.11 263.279 1530.79 265.609 1529.64 268.109C1528.51 270.544 1527.65 272.764 1527.07 274.77C1526.69 276.059 1526.2 278.135 1525.6 281H1521.71C1522.6 275.661 1524.55 270.349 1527.57 265.062C1529.36 261.964 1531.23 259.288 1533.2 257.035H1517.73V253.5H1537.18Z" fill="white"></path> <path d="M1540.19 268.051H1550V271.664H1540.19V268.051Z" fill="white"></path> <path d="M1555.68 261.195V258.5C1558.22 258.253 1559.99 257.842 1560.99 257.27C1561.99 256.684 1562.74 255.31 1563.24 253.148H1566.01V281H1562.26V261.195H1555.68Z" fill="white"></path> <path d="M1579.43 274.242C1579.53 276.182 1580.28 277.523 1581.68 278.266C1582.39 278.656 1583.2 278.852 1584.1 278.852C1585.78 278.852 1587.21 278.155 1588.39 276.762C1589.58 275.355 1590.42 272.51 1590.91 268.227C1590.13 269.464 1589.16 270.336 1588 270.844C1586.86 271.339 1585.62 271.586 1584.29 271.586C1581.6 271.586 1579.46 270.746 1577.89 269.066C1576.32 267.387 1575.54 265.225 1575.54 262.582C1575.54 260.043 1576.32 257.81 1577.87 255.883C1579.42 253.956 1581.7 252.992 1584.72 252.992C1588.8 252.992 1591.61 254.828 1593.16 258.5C1594.02 260.518 1594.45 263.044 1594.45 266.078C1594.45 269.503 1593.93 272.536 1592.91 275.18C1591.2 279.581 1588.31 281.781 1584.23 281.781C1581.5 281.781 1579.42 281.065 1578 279.633C1576.58 278.201 1575.88 276.404 1575.88 274.242H1579.43ZM1584.76 268.5C1586.15 268.5 1587.42 268.044 1588.57 267.133C1589.73 266.208 1590.31 264.6 1590.31 262.309C1590.31 260.251 1589.79 258.721 1588.75 257.719C1587.72 256.703 1586.4 256.195 1584.8 256.195C1583.08 256.195 1581.71 256.775 1580.7 257.934C1579.7 259.079 1579.2 260.616 1579.2 262.543C1579.2 264.366 1579.64 265.818 1580.52 266.898C1581.41 267.966 1582.82 268.5 1584.76 268.5Z" fill="white"></path> <path d="M1597.63 281C1597.76 278.591 1598.26 276.495 1599.12 274.711C1599.99 272.927 1601.68 271.306 1604.2 269.848L1607.95 267.68C1609.62 266.703 1610.8 265.87 1611.48 265.18C1612.55 264.099 1613.08 262.862 1613.08 261.469C1613.08 259.841 1612.59 258.552 1611.62 257.602C1610.64 256.638 1609.34 256.156 1607.71 256.156C1605.3 256.156 1603.64 257.068 1602.71 258.891C1602.22 259.867 1601.94 261.221 1601.89 262.953H1598.32C1598.36 260.518 1598.8 258.533 1599.66 256.996C1601.19 254.288 1603.88 252.934 1607.73 252.934C1610.93 252.934 1613.27 253.799 1614.74 255.531C1616.23 257.263 1616.97 259.19 1616.97 261.312C1616.97 263.552 1616.18 265.466 1614.61 267.055C1613.69 267.979 1612.06 269.099 1609.7 270.414L1607.03 271.898C1605.75 272.602 1604.75 273.272 1604.02 273.91C1602.72 275.043 1601.9 276.299 1601.56 277.68H1616.83V281H1597.63Z" fill="white"></path> <path d="M1630.35 252.914C1633.47 252.914 1635.65 253.728 1636.87 255.355C1638.11 256.97 1638.73 258.637 1638.73 260.355H1635.25C1635.04 259.249 1634.71 258.383 1634.25 257.758C1633.41 256.586 1632.12 256 1630.41 256C1628.44 256 1626.88 256.911 1625.72 258.734C1624.56 260.544 1623.92 263.142 1623.79 266.527C1624.59 265.342 1625.61 264.457 1626.83 263.871C1627.95 263.35 1629.2 263.09 1630.58 263.09C1632.93 263.09 1634.97 263.839 1636.71 265.336C1638.46 266.833 1639.33 269.066 1639.33 272.035C1639.33 274.574 1638.51 276.827 1636.85 278.793C1635.2 280.746 1632.84 281.723 1629.78 281.723C1627.16 281.723 1624.9 280.733 1623 278.754C1621.1 276.762 1620.15 273.415 1620.15 268.715C1620.15 265.238 1620.58 262.289 1621.42 259.867C1623.05 255.232 1626.02 252.914 1630.35 252.914ZM1630.09 278.598C1631.94 278.598 1633.32 277.979 1634.23 276.742C1635.16 275.492 1635.62 274.021 1635.62 272.328C1635.62 270.896 1635.21 269.535 1634.39 268.246C1633.57 266.944 1632.08 266.293 1629.92 266.293C1628.41 266.293 1627.08 266.794 1625.93 267.797C1624.8 268.799 1624.23 270.31 1624.23 272.328C1624.23 274.099 1624.75 275.59 1625.78 276.801C1626.82 277.999 1628.26 278.598 1630.09 278.598Z" fill="white"></path> <path d="M1434 0H0V436H1434V0Z" fill="#225395"></path> <path d="M631.776 234.797C631.936 237.645 632.608 239.958 633.793 241.735C636.049 245.062 640.025 246.726 645.722 246.726C648.274 246.726 650.598 246.361 652.694 245.632C656.75 244.219 658.778 241.69 658.778 238.044C658.778 235.31 657.924 233.361 656.215 232.199C654.483 231.06 651.771 230.069 648.08 229.226L641.278 227.688C636.835 226.685 633.69 225.58 631.845 224.372C628.655 222.276 627.06 219.143 627.06 214.973C627.06 210.461 628.62 206.758 631.742 203.864C634.864 200.97 639.284 199.523 645.004 199.523C650.268 199.523 654.734 200.799 658.402 203.352C662.094 205.881 663.939 209.937 663.939 215.52H657.548C657.206 212.831 656.477 210.769 655.36 209.333C653.287 206.713 649.766 205.402 644.799 205.402C640.788 205.402 637.906 206.245 636.151 207.932C634.397 209.618 633.52 211.577 633.52 213.811C633.52 216.271 634.545 218.072 636.596 219.211C637.94 219.94 640.982 220.852 645.722 221.945L652.763 223.552C656.158 224.326 658.778 225.386 660.624 226.73C663.814 229.077 665.409 232.484 665.409 236.95C665.409 242.51 663.381 246.486 659.325 248.879C655.292 251.271 650.598 252.468 645.243 252.468C639 252.468 634.112 250.873 630.58 247.683C627.048 244.515 625.316 240.22 625.385 234.797H631.776Z" fill="white"></path> <path d="M673.065 200.788H678.979V229.943L694.77 214.392H702.631L688.617 228.098L703.417 250.998H695.556L684.14 232.541L678.979 237.258V250.998H673.065V200.788Z" fill="white"></path> <path d="M731.068 214.392H737.87C737.004 216.739 735.079 222.093 732.094 230.456C729.861 236.745 727.992 241.872 726.488 245.837C722.934 255.179 720.427 260.876 718.969 262.927C717.51 264.978 715.004 266.003 711.449 266.003C710.583 266.003 709.911 265.969 709.433 265.9C708.977 265.832 708.407 265.707 707.724 265.524V259.919C708.795 260.215 709.569 260.397 710.048 260.466C710.526 260.534 710.948 260.568 711.312 260.568C712.452 260.568 713.284 260.375 713.808 259.987C714.354 259.623 714.81 259.167 715.175 258.62C715.289 258.438 715.699 257.504 716.405 255.817C717.112 254.131 717.624 252.878 717.943 252.058L704.408 214.392H711.381L721.19 244.196L731.068 214.392Z" fill="white"></path> <path d="M747.099 233.122C747.099 237.041 747.93 240.323 749.594 242.966C751.257 245.609 753.923 246.931 757.592 246.931C760.44 246.931 762.776 245.712 764.599 243.273C766.444 240.812 767.367 237.292 767.367 232.712C767.367 228.086 766.422 224.668 764.53 222.458C762.639 220.225 760.303 219.108 757.523 219.108C754.424 219.108 751.907 220.293 749.97 222.663C748.056 225.033 747.099 228.519 747.099 233.122ZM756.361 213.742C759.164 213.742 761.511 214.335 763.402 215.52C764.496 216.203 765.738 217.399 767.128 219.108V200.617H773.041V250.998H767.504V245.905C766.068 248.161 764.371 249.79 762.411 250.793C760.451 251.796 758.207 252.297 755.678 252.297C751.599 252.297 748.067 250.588 745.082 247.17C742.097 243.729 740.604 239.16 740.604 233.464C740.604 228.132 741.96 223.518 744.672 219.621C747.406 215.702 751.303 213.742 756.361 213.742Z" fill="white"></path> <path d="M782.167 214.562H788.422V250.998H782.167V214.562ZM782.167 200.788H788.422V207.761H782.167V200.788Z" fill="white"></path> <path d="M800.761 214.392L810.536 244.196L820.756 214.392H827.489L813.681 250.998H807.118L793.617 214.392H800.761Z" fill="white"></path> <path d="M847.997 213.571C850.595 213.571 853.113 214.187 855.551 215.417C857.989 216.625 859.846 218.197 861.122 220.134C862.353 221.979 863.173 224.133 863.583 226.594C863.948 228.28 864.13 230.969 864.13 234.66H837.299C837.413 238.374 838.29 241.359 839.931 243.615C841.571 245.848 844.112 246.965 847.553 246.965C850.766 246.965 853.329 245.905 855.243 243.786C856.337 242.556 857.112 241.132 857.567 239.514H863.617C863.458 240.858 862.922 242.362 862.011 244.025C861.122 245.666 860.119 247.01 859.003 248.059C857.134 249.882 854.822 251.112 852.064 251.75C850.583 252.115 848.909 252.297 847.04 252.297C842.483 252.297 838.62 250.645 835.453 247.341C832.286 244.014 830.702 239.366 830.702 233.396C830.702 227.517 832.297 222.743 835.487 219.074C838.677 215.406 842.847 213.571 847.997 213.571ZM857.807 229.772C857.556 227.106 856.975 224.976 856.063 223.381C854.377 220.419 851.563 218.938 847.621 218.938C844.796 218.938 842.426 219.963 840.512 222.014C838.598 224.042 837.584 226.628 837.47 229.772H857.807Z" fill="white"></path> <path d="M871.889 214.392H877.733V220.715C878.212 219.484 879.385 217.992 881.254 216.237C883.122 214.46 885.276 213.571 887.714 213.571C887.828 213.571 888.021 213.583 888.295 213.605C888.568 213.628 889.035 213.674 889.696 213.742V220.236C889.332 220.168 888.99 220.122 888.671 220.1C888.375 220.077 888.044 220.065 887.68 220.065C884.581 220.065 882.2 221.068 880.536 223.073C878.873 225.056 878.041 227.346 878.041 229.943V250.998H871.889V214.392Z" fill="white"></path> <path d="M628.699 109.342V104.625C633.143 104.192 636.242 103.474 637.996 102.472C639.751 101.446 641.061 99.0423 641.927 95.2598H646.78V144H640.218V109.342H628.699Z" fill="white"></path> <path d="M670.262 132.174C670.444 135.569 671.754 137.916 674.192 139.215C675.446 139.898 676.858 140.24 678.431 140.24C681.37 140.24 683.877 139.021 685.95 136.583C688.024 134.122 689.493 129.143 690.359 121.646C688.992 123.811 687.295 125.338 685.267 126.227C683.261 127.092 681.097 127.525 678.772 127.525C674.056 127.525 670.319 126.056 667.562 123.116C664.827 120.177 663.46 116.394 663.46 111.769C663.46 107.325 664.816 103.417 667.527 100.045C670.239 96.6725 674.238 94.9863 679.524 94.9863C686.657 94.9863 691.578 98.1992 694.29 104.625C695.794 108.157 696.546 112.577 696.546 117.887C696.546 123.88 695.646 129.189 693.846 133.814C690.861 141.516 685.802 145.367 678.67 145.367C673.885 145.367 670.25 144.114 667.767 141.607C665.283 139.101 664.041 135.956 664.041 132.174H670.262ZM679.593 122.125C682.031 122.125 684.253 121.327 686.258 119.732C688.286 118.115 689.3 115.3 689.3 111.29C689.3 107.69 688.388 105.012 686.565 103.258C684.765 101.48 682.464 100.592 679.661 100.592C676.653 100.592 674.261 101.606 672.483 103.634C670.729 105.639 669.852 108.328 669.852 111.7C669.852 114.89 670.626 117.431 672.176 119.322C673.725 121.191 676.198 122.125 679.593 122.125Z" fill="white"></path> <path d="M702.835 121.339H719.993V127.662H702.835V121.339Z" fill="white"></path> <path d="M746.38 126.671V104.488L730.691 126.671H746.38ZM746.482 144V132.037H725.018V126.021L747.439 94.918H752.635V126.671H759.847V132.037H752.635V144H746.482Z" fill="white"></path> <path d="M768.904 109.342V104.625C773.348 104.192 776.447 103.474 778.201 102.472C779.956 101.446 781.266 99.0423 782.132 95.2598H786.985V144H780.423V109.342H768.904Z" fill="white"></path> <path d="M809.817 131.524C810.228 135.034 811.857 137.46 814.705 138.805C816.163 139.488 817.85 139.83 819.764 139.83C823.41 139.83 826.11 138.668 827.864 136.344C829.619 134.02 830.496 131.445 830.496 128.619C830.496 125.201 829.448 122.558 827.352 120.689C825.278 118.821 822.783 117.887 819.866 117.887C817.747 117.887 815.924 118.297 814.397 119.117C812.894 119.938 811.606 121.077 810.535 122.535L805.203 122.228L808.929 95.875H834.358V101.822H813.543L811.458 115.426C812.597 114.56 813.68 113.91 814.705 113.478C816.528 112.726 818.636 112.35 821.028 112.35C825.517 112.35 829.323 113.797 832.444 116.69C835.566 119.584 837.127 123.253 837.127 127.696C837.127 132.322 835.691 136.401 832.82 139.933C829.972 143.465 825.415 145.23 819.148 145.23C815.161 145.23 811.629 144.114 808.553 141.881C805.499 139.625 803.79 136.173 803.426 131.524H809.817Z" fill="white"></path> <path d="M846.834 109.342V104.625C851.277 104.192 854.376 103.474 856.131 102.472C857.885 101.446 859.196 99.0423 860.062 95.2598H864.915V144H858.353V109.342H846.834Z" fill="white"></path> <path d="M3178 0H2742V436H3178V0Z" fill="black"></path> <path d="M2742 0H1870V436H2742V0Z" fill="white"></path> <path d="M1987.76 160.788L1973.61 119.592L1958.56 160.788H1987.76ZM1967.01 105.754H1981.29L2015.12 199.001H2001.28L1991.83 171.071H1954.95L1944.85 199.001H1931.9L1967.01 105.754Z" fill="black"></path> <path d="M2028.39 131.018L2046.54 186.369L2065.52 131.018H2078.03L2052.38 199.001H2040.2L2015.12 131.018H2028.39Z" fill="black"></path> <path d="M2087.8 131.335H2099.42V199.001H2087.8V131.335ZM2087.8 105.754H2099.42V118.703H2087.8V105.754Z" fill="black"></path> <path d="M2125.51 180.91C2125.51 184.211 2126.71 186.813 2129.13 188.718C2131.54 190.622 2134.39 191.574 2137.7 191.574C2141.72 191.574 2145.61 190.643 2149.38 188.781C2155.72 185.692 2158.9 180.635 2158.9 173.61V164.406C2157.5 165.295 2155.7 166.035 2153.5 166.628C2151.3 167.22 2149.14 167.644 2147.03 167.897L2140.11 168.786C2135.96 169.336 2132.85 170.204 2130.78 171.389C2127.26 173.378 2125.51 176.551 2125.51 180.91ZM2153.18 157.805C2155.81 157.466 2157.56 156.366 2158.45 154.504C2158.96 153.488 2159.21 152.028 2159.21 150.124C2159.21 146.231 2157.82 143.417 2155.02 141.682C2152.27 139.904 2148.32 139.016 2143.15 139.016C2137.19 139.016 2132.96 140.624 2130.46 143.84C2129.06 145.617 2128.15 148.262 2127.73 151.774H2117.07C2117.28 143.396 2119.99 137.577 2125.19 134.318C2130.44 131.018 2136.51 129.367 2143.41 129.367C2151.41 129.367 2157.9 130.891 2162.9 133.938C2167.85 136.984 2170.32 141.724 2170.32 148.156V187.321C2170.32 188.506 2170.56 189.458 2171.02 190.178C2171.53 190.897 2172.57 191.257 2174.13 191.257C2174.64 191.257 2175.21 191.236 2175.84 191.193C2176.48 191.109 2177.16 191.003 2177.88 190.876V199.318C2176.1 199.826 2174.74 200.144 2173.81 200.271C2172.88 200.397 2171.61 200.461 2170 200.461C2166.07 200.461 2163.21 199.064 2161.44 196.271C2160.5 194.79 2159.85 192.696 2159.47 189.987C2157.14 193.034 2153.8 195.679 2149.44 197.922C2145.08 200.165 2140.28 201.286 2135.03 201.286C2128.72 201.286 2123.56 199.382 2119.54 195.573C2115.56 191.722 2113.57 186.919 2113.57 181.164C2113.57 174.859 2115.54 169.971 2119.48 166.501C2123.41 163.031 2128.58 160.894 2134.97 160.09L2153.18 157.805Z" fill="black"></path> <path d="M2189.43 131.018H2200.28V142.761C2201.17 140.476 2203.35 137.704 2206.82 134.445C2210.29 131.145 2214.29 129.494 2218.82 129.494C2219.03 129.494 2219.39 129.515 2219.9 129.558C2220.41 129.6 2221.27 129.685 2222.5 129.812V141.872C2221.82 141.745 2221.19 141.66 2220.6 141.618C2220.05 141.576 2219.43 141.555 2218.75 141.555C2213 141.555 2208.58 143.417 2205.49 147.141C2202.4 150.822 2200.85 155.075 2200.85 159.899V199.001H2189.43V131.018Z" fill="black"></path> <path d="M2232.4 131.335H2244.02V199.001H2232.4V131.335ZM2232.4 105.754H2244.02V118.703H2232.4V105.754Z" fill="black"></path> <path d="M2811.71 118.186H2817.91C2820.25 118.186 2823.05 118.186 2824.46 120.289C2824.93 121.109 2825.51 121.927 2825.63 123.799C2825.63 127.072 2824.22 128.943 2820.95 129.528C2820.02 129.645 2819.43 129.763 2817.55 129.763H2811.83L2811.71 118.186ZM2802 111.285V148.83H2811.71V136.548H2818.14C2823.75 136.431 2829.25 136.198 2832.76 131.17C2834.99 128.245 2835.1 124.969 2835.1 123.682C2835.1 119.941 2833.81 117.249 2832.88 116.081C2832.3 115.028 2831.59 114.561 2831.24 114.208C2828.2 111.753 2824.81 111.4 2821.18 111.4L2802 111.285ZM2845.51 136.083C2846.56 133.04 2847.62 129.883 2848.44 126.84C2849.02 124.619 2849.72 122.394 2850.31 120.289L2855.45 136.196L2845.51 136.083ZM2855.45 111.285H2845.39L2831.13 148.83H2841.42L2843.4 142.864H2857.67L2859.66 148.83H2869.96L2855.45 111.285ZM2882.35 111.285H2872.88V148.83H2882.24L2881.77 125.202C2882.82 127.19 2883.88 129.18 2885.05 131.17C2886.1 133.04 2887.27 135.031 2888.56 137.016L2895.81 148.947H2905.28V111.285H2896.04L2896.39 135.498C2894.63 131.988 2892.53 128.48 2890.66 125.202L2882.35 111.285ZM2908.79 111.285V118.654H2918.73V148.83H2928.44V118.654H2938.49V111.285H2908.79V111.285ZM2967.5 130.933C2967.5 134.091 2966.68 137.016 2964.57 139.236C2962.12 141.809 2959.08 142.044 2957.91 142.044C2955.33 142.044 2952.99 141.109 2951.36 139.354C2949.84 137.716 2948.2 134.908 2948.2 129.763C2948.2 125.787 2949.49 121.109 2953.46 119.121C2954.17 118.771 2955.68 118.069 2957.67 118.069C2958.26 118.069 2959.78 118.069 2961.41 118.771C2963.52 119.706 2964.69 120.994 2965.16 121.579C2966.22 122.982 2967.74 126.255 2967.5 130.933ZM2969.96 146.022C2974.64 142.281 2977.21 136.083 2977.21 130.235C2977.21 125.087 2975.1 119.004 2971.48 115.263C2969.37 113.275 2964.93 110 2957.56 110C2948.56 110 2944.23 114.911 2942.24 117.719C2938.85 122.632 2938.62 127.897 2938.62 129.883C2938.62 132.105 2938.85 139.356 2944.11 144.619C2949.03 149.65 2955.46 150 2957.68 150C2964.11 149.998 2967.85 147.66 2969.96 146.022ZM2991.36 111.285H2981.89V148.83H2991.25L2990.78 125.202C2991.95 127.19 2993 129.18 2994.06 131.17C2995.11 133.04 2996.4 135.031 2997.56 137.016L3004.7 148.947H3014.17V111.285H3004.93L3005.28 135.498C3003.53 131.988 3001.54 128.48 2999.55 125.202L2991.36 111.285ZM3020.72 111.285V148.83H3051.02V141.461H3030.31V132.455H3048.09V125.322H3030.31V118.536H3049.26V111.285H3020.72Z" fill="white"></path> <path d="M3061.77 110.465C3066.45 110.465 3070.31 114.325 3070.31 119.003C3070.31 123.681 3066.45 127.542 3061.77 127.542C3057.09 127.542 3053.24 123.681 3053.24 119.003C3053.24 114.325 3057.09 110.465 3061.77 110.465ZM3061.77 125.674C3065.64 125.674 3068.32 122.746 3068.32 119.003C3068.32 115.263 3065.64 112.337 3061.77 112.337C3057.91 112.337 3055.22 115.263 3055.22 119.003C3055.22 122.746 3057.91 125.674 3061.77 125.674ZM3058.38 114.21H3062.01C3064.46 114.21 3065.64 115.028 3065.64 117.018C3065.64 118.773 3064.58 119.473 3063.18 119.588L3065.75 123.801H3063.65L3061.19 119.588H3060.14V123.801H3058.27L3058.38 114.21ZM3061.89 118.305C3062.83 118.305 3063.76 118.188 3063.76 116.785C3063.76 115.615 3062.71 115.495 3061.89 115.495H3060.25V118.305H3061.89Z" fill="white"></path> </svg> 