<?xml version="1.0" encoding="UTF-8"?> <svg xmlns="http://www.w3.org/2000/svg" width="3178" height="436" viewBox="0 0 3178 436" fill="none"> <path d="M436 0H0V436H436V0Z" fill="black"></path> <path d="M1308 0H436V436H1308V0Z" fill="#F5DF4D"></path> <path d="M57.5684 103.266C59.3848 103.266 60.7943 103.744 61.7969 104.701C62.7995 105.658 63.3561 106.745 63.4668 107.963H61.5723C61.3574 107.038 60.9277 106.306 60.2832 105.766C59.6452 105.225 58.7467 104.955 57.5879 104.955C56.1751 104.955 55.0326 105.453 54.1602 106.449C53.2943 107.439 52.8613 108.959 52.8613 111.01C52.8613 112.689 53.252 114.053 54.0332 115.102C54.821 116.143 55.9928 116.664 57.5488 116.664C58.9811 116.664 60.0716 116.114 60.8203 115.014C61.2174 114.434 61.5137 113.673 61.709 112.729H63.6035C63.4342 114.239 62.8743 115.505 61.9238 116.527C60.7845 117.758 59.248 118.373 57.3145 118.373C55.6478 118.373 54.248 117.868 53.1152 116.859C51.6243 115.525 50.8789 113.464 50.8789 110.678C50.8789 108.562 51.4388 106.827 52.5586 105.473C53.7695 104.001 55.4395 103.266 57.5684 103.266Z" fill="white"></path> <path d="M65.9277 103.656H68.7109L72.832 115.785L76.9238 103.656H79.6777V118.002H77.832V109.535C77.832 109.242 77.8385 108.757 77.8516 108.08C77.8646 107.403 77.8711 106.677 77.8711 105.902L73.7793 118.002H71.8555L67.7344 105.902V106.342C67.7344 106.693 67.7409 107.23 67.7539 107.953C67.7734 108.669 67.7832 109.197 67.7832 109.535V118.002H65.9277V103.656Z" fill="white"></path> <path d="M81.5234 103.656H83.7891L87.9102 110.551L92.0312 103.656H94.3066L88.8867 112.221V118.002H86.9434V112.221L81.5234 103.656Z" fill="white"></path> <path d="M95.9766 103.656H97.8711V110.648L104.863 103.656H107.549L101.582 109.438L107.715 118.002H105.186L100.166 110.805L97.8711 113.002V118.002H95.9766V103.656Z" fill="white"></path> <path d="M47.4102 177.016C49.2201 177.016 50.5286 177.761 51.3359 179.252C51.9609 180.404 52.2734 181.983 52.2734 183.988C52.2734 185.889 51.9902 187.462 51.4238 188.705C50.6035 190.489 49.2624 191.381 47.4004 191.381C45.7207 191.381 44.4707 190.652 43.6504 189.193C42.9668 187.976 42.625 186.342 42.625 184.291C42.625 182.702 42.8301 181.339 43.2402 180.199C44.0085 178.077 45.3984 177.016 47.4102 177.016ZM47.3906 189.779C48.3021 189.779 49.028 189.376 49.5684 188.568C50.1087 187.761 50.3789 186.257 50.3789 184.057C50.3789 182.468 50.1836 181.163 49.793 180.141C49.4023 179.112 48.6439 178.598 47.5176 178.598C46.4824 178.598 45.724 179.086 45.2422 180.062C44.7669 181.033 44.5293 182.465 44.5293 184.359C44.5293 185.785 44.6823 186.931 44.9883 187.797C45.457 189.118 46.2578 189.779 47.3906 189.779Z" fill="white"></path> <path d="M61.3555 187.621C61.4076 188.591 61.7819 189.262 62.4785 189.633C62.8366 189.828 63.2402 189.926 63.6895 189.926C64.5293 189.926 65.2454 189.577 65.8379 188.881C66.4303 188.178 66.8503 186.755 67.0977 184.613C66.707 185.232 66.222 185.668 65.6426 185.922C65.0697 186.169 64.4512 186.293 63.7871 186.293C62.4395 186.293 61.3717 185.873 60.584 185.033C59.8027 184.193 59.4121 183.113 59.4121 181.791C59.4121 180.521 59.7995 179.405 60.5742 178.441C61.349 177.478 62.4915 176.996 64.002 176.996C66.0397 176.996 67.446 177.914 68.2207 179.75C68.6504 180.759 68.8652 182.022 68.8652 183.539C68.8652 185.251 68.6081 186.768 68.0938 188.09C67.2409 190.29 65.7956 191.391 63.7578 191.391C62.3906 191.391 61.3522 191.033 60.6426 190.316C59.9329 189.6 59.5781 188.702 59.5781 187.621H61.3555ZM64.0215 184.75C64.7181 184.75 65.3529 184.522 65.9258 184.066C66.5052 183.604 66.7949 182.8 66.7949 181.654C66.7949 180.626 66.5345 179.861 66.0137 179.359C65.4993 178.852 64.8418 178.598 64.041 178.598C63.1816 178.598 62.498 178.887 61.9902 179.467C61.4889 180.04 61.2383 180.808 61.2383 181.771C61.2383 182.683 61.4596 183.409 61.9023 183.949C62.3451 184.483 63.0514 184.75 64.0215 184.75Z" fill="white"></path> <path d="M81.248 176.957C82.8105 176.957 83.8978 177.364 84.5098 178.178C85.1283 178.985 85.4375 179.818 85.4375 180.678H83.6992C83.5951 180.124 83.429 179.691 83.2012 179.379C82.778 178.793 82.1367 178.5 81.2773 178.5C80.2943 178.5 79.513 178.956 78.9336 179.867C78.3542 180.772 78.0319 182.071 77.9668 183.764C78.3704 183.171 78.8783 182.729 79.4902 182.436C80.0501 182.175 80.6751 182.045 81.3652 182.045C82.5371 182.045 83.5592 182.419 84.4316 183.168C85.304 183.917 85.7402 185.033 85.7402 186.518C85.7402 187.787 85.3268 188.913 84.5 189.896C83.6732 190.873 82.4948 191.361 80.9648 191.361C79.6562 191.361 78.5267 190.867 77.5762 189.877C76.6257 188.881 76.1504 187.208 76.1504 184.857C76.1504 183.119 76.362 181.645 76.7852 180.434C77.599 178.116 79.0866 176.957 81.248 176.957ZM81.1211 189.799C82.0456 189.799 82.7357 189.49 83.1914 188.871C83.6536 188.246 83.8848 187.51 83.8848 186.664C83.8848 185.948 83.6797 185.268 83.2695 184.623C82.8594 183.972 82.1139 183.646 81.0332 183.646C80.278 183.646 79.6139 183.897 79.041 184.398C78.4746 184.9 78.1914 185.655 78.1914 186.664C78.1914 187.549 78.4486 188.295 78.9629 188.9C79.4837 189.499 80.2031 189.799 81.1211 189.799Z" fill="white"></path> <path d="M89.1875 187.621C89.2396 188.591 89.6139 189.262 90.3105 189.633C90.6686 189.828 91.0723 189.926 91.5215 189.926C92.3613 189.926 93.0775 189.577 93.6699 188.881C94.2624 188.178 94.6823 186.755 94.9297 184.613C94.5391 185.232 94.054 185.668 93.4746 185.922C92.9017 186.169 92.2832 186.293 91.6191 186.293C90.2715 186.293 89.2038 185.873 88.416 185.033C87.6348 184.193 87.2441 183.113 87.2441 181.791C87.2441 180.521 87.6315 179.405 88.4062 178.441C89.181 177.478 90.3236 176.996 91.834 176.996C93.8717 176.996 95.278 177.914 96.0527 179.75C96.4824 180.759 96.6973 182.022 96.6973 183.539C96.6973 185.251 96.4401 186.768 95.9258 188.09C95.0729 190.29 93.6276 191.391 91.5898 191.391C90.2227 191.391 89.1842 191.033 88.4746 190.316C87.765 189.6 87.4102 188.702 87.4102 187.621H89.1875ZM91.8535 184.75C92.5501 184.75 93.1849 184.522 93.7578 184.066C94.3372 183.604 94.627 182.8 94.627 181.654C94.627 180.626 94.3665 179.861 93.8457 179.359C93.3314 178.852 92.6738 178.598 91.873 178.598C91.0137 178.598 90.3301 178.887 89.8223 179.467C89.321 180.04 89.0703 180.808 89.0703 181.771C89.0703 182.683 89.2917 183.409 89.7344 183.949C90.1771 184.483 90.8835 184.75 91.8535 184.75Z" fill="white"></path> <path d="M109.842 186.049V179.711L105.359 186.049H109.842ZM109.871 191V187.582H103.738V185.863L110.145 176.977H111.629V186.049H113.689V187.582H111.629V191H109.871Z" fill="white"></path> <path d="M190.334 114.717C190.386 115.303 190.533 115.752 190.773 116.064C191.216 116.631 191.984 116.914 193.078 116.914C193.729 116.914 194.302 116.774 194.797 116.494C195.292 116.208 195.539 115.768 195.539 115.176C195.539 114.727 195.34 114.385 194.943 114.15C194.689 114.007 194.188 113.841 193.439 113.652L192.043 113.301C191.151 113.079 190.493 112.832 190.07 112.559C189.315 112.083 188.938 111.426 188.938 110.586C188.938 109.596 189.292 108.796 190.002 108.184C190.718 107.572 191.678 107.266 192.883 107.266C194.458 107.266 195.594 107.728 196.291 108.652C196.727 109.238 196.939 109.87 196.926 110.547H195.266C195.233 110.15 195.093 109.788 194.846 109.463C194.442 109.001 193.742 108.77 192.746 108.77C192.082 108.77 191.577 108.896 191.232 109.15C190.894 109.404 190.725 109.74 190.725 110.156C190.725 110.612 190.949 110.977 191.398 111.25C191.659 111.413 192.043 111.556 192.551 111.68L193.713 111.963C194.976 112.269 195.822 112.565 196.252 112.852C196.936 113.301 197.277 114.007 197.277 114.971C197.277 115.902 196.923 116.706 196.213 117.383C195.51 118.06 194.436 118.398 192.99 118.398C191.434 118.398 190.331 118.047 189.68 117.344C189.035 116.634 188.69 115.758 188.645 114.717H190.334Z" fill="white"></path> <path d="M206.193 110.225C207.105 110.225 207.824 110.042 208.352 109.678C208.885 109.313 209.152 108.656 209.152 107.705C209.152 106.683 208.781 105.986 208.039 105.615C207.642 105.42 207.111 105.322 206.447 105.322H201.701V110.225H206.193ZM199.758 103.652H206.398C207.492 103.652 208.394 103.812 209.104 104.131C210.451 104.743 211.125 105.872 211.125 107.52C211.125 108.379 210.946 109.082 210.588 109.629C210.236 110.176 209.742 110.615 209.104 110.947C209.663 111.175 210.083 111.475 210.363 111.846C210.65 112.217 210.809 112.819 210.842 113.652L210.91 115.576C210.93 116.123 210.975 116.53 211.047 116.797C211.164 117.253 211.372 117.546 211.672 117.676V117.998H209.289C209.224 117.874 209.172 117.715 209.133 117.52C209.094 117.324 209.061 116.947 209.035 116.387L208.918 113.994C208.872 113.057 208.524 112.428 207.873 112.109C207.502 111.934 206.919 111.846 206.125 111.846H201.701V117.998H199.758V103.652Z" fill="white"></path> <path d="M220.178 103.281C221.525 103.281 222.691 103.542 223.674 104.062C225.1 104.811 225.972 106.123 226.291 107.998H224.367C224.133 106.95 223.648 106.188 222.912 105.713C222.176 105.231 221.249 104.99 220.129 104.99C218.801 104.99 217.681 105.488 216.77 106.484C215.865 107.48 215.412 108.965 215.412 110.938C215.412 112.643 215.786 114.033 216.535 115.107C217.284 116.175 218.505 116.709 220.197 116.709C221.493 116.709 222.564 116.335 223.41 115.586C224.263 114.831 224.699 113.613 224.719 111.934H220.227V110.322H226.525V117.998H225.275L224.807 116.152C224.149 116.875 223.566 117.376 223.059 117.656C222.206 118.138 221.122 118.379 219.807 118.379C218.107 118.379 216.646 117.829 215.422 116.729C214.087 115.348 213.42 113.454 213.42 111.045C213.42 108.643 214.071 106.732 215.373 105.312C216.61 103.958 218.212 103.281 220.178 103.281Z" fill="white"></path> <path d="M234.934 109.717C235.754 109.717 236.392 109.603 236.848 109.375C237.564 109.017 237.922 108.372 237.922 107.441C237.922 106.504 237.541 105.872 236.779 105.547C236.35 105.365 235.712 105.273 234.865 105.273H231.398V109.717H234.934ZM235.588 116.338C236.779 116.338 237.629 115.993 238.137 115.303C238.456 114.867 238.615 114.339 238.615 113.721C238.615 112.679 238.15 111.969 237.219 111.592C236.724 111.39 236.07 111.289 235.256 111.289H231.398V116.338H235.588ZM229.494 103.652H235.656C237.336 103.652 238.531 104.154 239.24 105.156C239.657 105.749 239.865 106.432 239.865 107.207C239.865 108.112 239.608 108.854 239.094 109.434C238.827 109.74 238.443 110.02 237.941 110.273C238.677 110.553 239.227 110.869 239.592 111.221C240.236 111.846 240.559 112.708 240.559 113.809C240.559 114.733 240.269 115.57 239.689 116.318C238.824 117.438 237.447 117.998 235.559 117.998H229.494V103.652Z" fill="white"></path> <path d="M167.625 191.002C167.69 189.798 167.938 188.749 168.367 187.857C168.803 186.965 169.65 186.155 170.906 185.426L172.781 184.342C173.621 183.854 174.21 183.437 174.549 183.092C175.083 182.551 175.35 181.933 175.35 181.236C175.35 180.423 175.105 179.778 174.617 179.303C174.129 178.821 173.478 178.58 172.664 178.58C171.46 178.58 170.626 179.036 170.164 179.947C169.917 180.436 169.78 181.113 169.754 181.979H167.967C167.986 180.761 168.211 179.768 168.641 179C169.402 177.646 170.747 176.969 172.674 176.969C174.275 176.969 175.444 177.402 176.18 178.268C176.922 179.133 177.293 180.097 177.293 181.158C177.293 182.278 176.899 183.235 176.111 184.029C175.656 184.492 174.839 185.051 173.66 185.709L172.322 186.451C171.684 186.803 171.183 187.138 170.818 187.457C170.167 188.023 169.757 188.652 169.588 189.342H177.225V191.002H167.625Z" fill="white"></path> <path d="M184.744 186.051V179.713L180.262 186.051H184.744ZM184.773 191.002V187.584H178.641V185.865L185.047 176.979H186.531V186.051H188.592V187.584H186.531V191.002H184.773Z" fill="white"></path> <path d="M191.736 187.438C191.854 188.44 192.319 189.133 193.133 189.518C193.549 189.713 194.031 189.811 194.578 189.811C195.62 189.811 196.391 189.479 196.893 188.814C197.394 188.15 197.645 187.415 197.645 186.607C197.645 185.631 197.345 184.876 196.746 184.342C196.154 183.808 195.441 183.541 194.607 183.541C194.002 183.541 193.481 183.658 193.045 183.893C192.615 184.127 192.247 184.452 191.941 184.869L190.418 184.781L191.482 177.252H198.748V178.951H192.801L192.205 182.838C192.531 182.59 192.84 182.405 193.133 182.281C193.654 182.066 194.256 181.959 194.939 181.959C196.222 181.959 197.309 182.372 198.201 183.199C199.093 184.026 199.539 185.074 199.539 186.344C199.539 187.665 199.129 188.831 198.309 189.84C197.495 190.849 196.193 191.354 194.402 191.354C193.263 191.354 192.254 191.035 191.375 190.396C190.503 189.752 190.014 188.766 189.91 187.438H191.736Z" fill="white"></path> <path d="M206.59 191.002C206.655 189.798 206.902 188.749 207.332 187.857C207.768 186.965 208.615 186.155 209.871 185.426L211.746 184.342C212.586 183.854 213.175 183.437 213.514 183.092C214.048 182.551 214.314 181.933 214.314 181.236C214.314 180.423 214.07 179.778 213.582 179.303C213.094 178.821 212.443 178.58 211.629 178.58C210.424 178.58 209.591 179.036 209.129 179.947C208.882 180.436 208.745 181.113 208.719 181.979H206.932C206.951 180.761 207.176 179.768 207.605 179C208.367 177.646 209.712 176.969 211.639 176.969C213.24 176.969 214.409 177.402 215.145 178.268C215.887 179.133 216.258 180.097 216.258 181.158C216.258 182.278 215.864 183.235 215.076 184.029C214.62 184.492 213.803 185.051 212.625 185.709L211.287 186.451C210.649 186.803 210.148 187.138 209.783 187.457C209.132 188.023 208.722 188.652 208.553 189.342H216.189V191.002H206.59Z" fill="white"></path> <path d="M217.723 191.002C217.788 189.798 218.035 188.749 218.465 187.857C218.901 186.965 219.747 186.155 221.004 185.426L222.879 184.342C223.719 183.854 224.308 183.437 224.646 183.092C225.18 182.551 225.447 181.933 225.447 181.236C225.447 180.423 225.203 179.778 224.715 179.303C224.227 178.821 223.576 178.58 222.762 178.58C221.557 178.58 220.724 179.036 220.262 179.947C220.014 180.436 219.878 181.113 219.852 181.979H218.064C218.084 180.761 218.309 179.768 218.738 179C219.5 177.646 220.844 176.969 222.771 176.969C224.373 176.969 225.542 177.402 226.277 178.268C227.02 179.133 227.391 180.097 227.391 181.158C227.391 182.278 226.997 183.235 226.209 184.029C225.753 184.492 224.936 185.051 223.758 185.709L222.42 186.451C221.782 186.803 221.281 187.138 220.916 187.457C220.265 188.023 219.855 188.652 219.686 189.342H227.322V191.002H217.723Z" fill="white"></path> <path d="M233.426 191.383C231.772 191.383 230.571 190.93 229.822 190.025C229.08 189.114 228.709 188.007 228.709 186.705H230.545C230.623 187.61 230.792 188.268 231.053 188.678C231.508 189.413 232.332 189.781 233.523 189.781C234.448 189.781 235.19 189.534 235.75 189.039C236.31 188.544 236.59 187.906 236.59 187.125C236.59 186.161 236.294 185.488 235.701 185.104C235.115 184.719 234.298 184.527 233.25 184.527C233.133 184.527 233.012 184.531 232.889 184.537C232.771 184.537 232.651 184.54 232.527 184.547V182.994C232.71 183.014 232.863 183.027 232.986 183.033C233.11 183.04 233.243 183.043 233.387 183.043C234.044 183.043 234.585 182.939 235.008 182.73C235.75 182.366 236.121 181.715 236.121 180.777C236.121 180.081 235.874 179.544 235.379 179.166C234.884 178.788 234.308 178.6 233.65 178.6C232.479 178.6 231.668 178.99 231.219 179.771C230.971 180.201 230.831 180.813 230.799 181.607H229.061C229.061 180.566 229.269 179.68 229.686 178.951C230.402 177.649 231.661 176.998 233.465 176.998C234.891 176.998 235.994 177.317 236.775 177.955C237.557 178.587 237.947 179.505 237.947 180.709C237.947 181.568 237.716 182.265 237.254 182.799C236.967 183.131 236.596 183.391 236.141 183.58C236.876 183.782 237.449 184.173 237.859 184.752C238.276 185.325 238.484 186.028 238.484 186.861C238.484 188.196 238.045 189.283 237.166 190.123C236.287 190.963 235.04 191.383 233.426 191.383Z" fill="white"></path> <path d="M255.389 177.252V178.785C254.939 179.221 254.34 179.98 253.592 181.061C252.85 182.141 252.192 183.307 251.619 184.557C251.053 185.774 250.623 186.884 250.33 187.887C250.141 188.531 249.897 189.57 249.598 191.002H247.654C248.097 188.333 249.074 185.676 250.584 183.033C251.476 181.484 252.413 180.146 253.396 179.02H245.662V177.252H255.389Z" fill="white"></path> <path d="M266.521 177.252V178.785C266.072 179.221 265.473 179.98 264.725 181.061C263.982 182.141 263.325 183.307 262.752 184.557C262.186 185.774 261.756 186.884 261.463 187.887C261.274 188.531 261.03 189.57 260.73 191.002H258.787C259.23 188.333 260.206 185.676 261.717 183.033C262.609 181.484 263.546 180.146 264.529 179.02H256.795V177.252H266.521Z" fill="white"></path> <path d="M322.572 103.656H324.535V109.584H331.996V103.656H333.959V118.002H331.996V111.293H324.535V118.002H322.572V103.656Z" fill="white"></path> <path d="M347.416 103.656V105.365H342.582V118.002H340.609V105.365H335.775V103.656H347.416Z" fill="white"></path> <path d="M349.154 103.656H351.938L356.059 115.785L360.15 103.656H362.904V118.002H361.059V109.535C361.059 109.242 361.065 108.757 361.078 108.08C361.091 107.403 361.098 106.677 361.098 105.902L357.006 118.002H355.082L350.961 105.902V106.342C350.961 106.693 350.967 107.23 350.98 107.953C351 108.669 351.01 109.197 351.01 109.535V118.002H349.154V103.656Z" fill="white"></path> <path d="M365.863 103.656H367.807V116.293H375.072V118.002H365.863V103.656Z" fill="white"></path> <path d="M321.729 178.949C321.755 178.22 321.882 177.686 322.109 177.348C322.52 176.749 323.311 176.449 324.482 176.449C324.593 176.449 324.707 176.452 324.824 176.459C324.941 176.465 325.075 176.475 325.225 176.488V178.09C325.042 178.077 324.909 178.07 324.824 178.07C324.746 178.064 324.671 178.061 324.6 178.061C324.066 178.061 323.747 178.201 323.643 178.48C323.538 178.754 323.486 179.457 323.486 180.59H325.225V181.977H323.467V191H321.729V181.977H320.273V180.59H321.729V178.949Z" fill="white"></path> <path d="M328.037 187.436C328.154 188.438 328.62 189.132 329.434 189.516C329.85 189.711 330.332 189.809 330.879 189.809C331.921 189.809 332.692 189.477 333.193 188.812C333.695 188.148 333.945 187.413 333.945 186.605C333.945 185.629 333.646 184.874 333.047 184.34C332.454 183.806 331.742 183.539 330.908 183.539C330.303 183.539 329.782 183.656 329.346 183.891C328.916 184.125 328.548 184.451 328.242 184.867L326.719 184.779L327.783 177.25H335.049V178.949H329.102L328.506 182.836C328.831 182.589 329.141 182.403 329.434 182.279C329.954 182.064 330.557 181.957 331.24 181.957C332.523 181.957 333.61 182.37 334.502 183.197C335.394 184.024 335.84 185.072 335.84 186.342C335.84 187.663 335.43 188.829 334.609 189.838C333.796 190.847 332.493 191.352 330.703 191.352C329.564 191.352 328.555 191.033 327.676 190.395C326.803 189.75 326.315 188.764 326.211 187.436H328.037Z" fill="white"></path> <path d="M339.102 185.893C339.102 187.012 339.339 187.95 339.814 188.705C340.29 189.46 341.051 189.838 342.1 189.838C342.913 189.838 343.581 189.49 344.102 188.793C344.629 188.09 344.893 187.084 344.893 185.775C344.893 184.454 344.622 183.477 344.082 182.846C343.542 182.208 342.874 181.889 342.08 181.889C341.195 181.889 340.475 182.227 339.922 182.904C339.375 183.581 339.102 184.577 339.102 185.893ZM341.748 180.355C342.549 180.355 343.219 180.525 343.76 180.863C344.072 181.059 344.427 181.4 344.824 181.889V176.605H346.514V191H344.932V189.545C344.521 190.189 344.036 190.655 343.477 190.941C342.917 191.228 342.275 191.371 341.553 191.371C340.387 191.371 339.378 190.883 338.525 189.906C337.673 188.923 337.246 187.618 337.246 185.99C337.246 184.467 337.633 183.148 338.408 182.035C339.189 180.915 340.303 180.355 341.748 180.355Z" fill="white"></path> <path d="M349.561 178.949C349.587 178.22 349.714 177.686 349.941 177.348C350.352 176.749 351.143 176.449 352.314 176.449C352.425 176.449 352.539 176.452 352.656 176.459C352.773 176.465 352.907 176.475 353.057 176.488V178.09C352.874 178.077 352.741 178.07 352.656 178.07C352.578 178.064 352.503 178.061 352.432 178.061C351.898 178.061 351.579 178.201 351.475 178.48C351.37 178.754 351.318 179.457 351.318 180.59H353.057V181.977H351.299V191H349.561V181.977H348.105V180.59H349.561V178.949Z" fill="white"></path> <path d="M360.01 186.049V179.711L355.527 186.049H360.01ZM360.039 191V187.582H353.906V185.863L360.312 176.977H361.797V186.049H363.857V187.582H361.797V191H360.039Z" fill="white"></path> <path d="M366.934 185.893C366.934 187.012 367.171 187.95 367.646 188.705C368.122 189.46 368.883 189.838 369.932 189.838C370.745 189.838 371.413 189.49 371.934 188.793C372.461 188.09 372.725 187.084 372.725 185.775C372.725 184.454 372.454 183.477 371.914 182.846C371.374 182.208 370.706 181.889 369.912 181.889C369.027 181.889 368.307 182.227 367.754 182.904C367.207 183.581 366.934 184.577 366.934 185.893ZM369.58 180.355C370.381 180.355 371.051 180.525 371.592 180.863C371.904 181.059 372.259 181.4 372.656 181.889V176.605H374.346V191H372.764V189.545C372.354 190.189 371.868 190.655 371.309 190.941C370.749 191.228 370.107 191.371 369.385 191.371C368.219 191.371 367.21 190.883 366.357 189.906C365.505 188.923 365.078 187.618 365.078 185.99C365.078 184.467 365.465 183.148 366.24 182.035C367.021 180.915 368.135 180.355 369.58 180.355Z" fill="white"></path> <path d="M899.871 200.789H906.741V250.999H899.871V200.789Z" fill="black"></path> <path d="M917.166 200.789H923.318V250.999H917.166V200.789Z" fill="black"></path> <path d="M932.752 200.789H938.904V250.999H932.752V200.789Z" fill="black"></path> <path d="M954.319 214.393V238.694C954.319 240.563 954.616 242.09 955.208 243.274C956.302 245.462 958.341 246.556 961.326 246.556C965.61 246.556 968.527 244.642 970.076 240.813C970.919 238.763 971.341 235.949 971.341 232.371V214.393H977.493V250.999H971.683L971.751 245.599C970.953 246.989 969.962 248.162 968.777 249.119C966.43 251.033 963.582 251.99 960.232 251.99C955.014 251.99 951.46 250.247 949.568 246.761C948.543 244.892 948.03 242.397 948.03 239.275V214.393H954.319Z" fill="black"></path> <path d="M987.132 214.393H993.216V219.588C994.674 217.788 995.996 216.478 997.181 215.657C999.209 214.267 1001.51 213.572 1004.08 213.572C1007 213.572 1009.35 214.29 1011.13 215.726C1012.13 216.546 1013.04 217.754 1013.86 219.349C1015.23 217.389 1016.83 215.942 1018.68 215.008C1020.53 214.051 1022.6 213.572 1024.9 213.572C1029.82 213.572 1033.17 215.35 1034.95 218.904C1035.91 220.818 1036.38 223.393 1036.38 226.629V250.999H1029.99V225.569C1029.99 223.131 1029.38 221.456 1028.15 220.545C1026.94 219.633 1025.46 219.178 1023.7 219.178C1021.29 219.178 1019.2 219.987 1017.45 221.604C1015.72 223.222 1014.85 225.923 1014.85 229.705V250.999H1008.6V227.107C1008.6 224.624 1008.3 222.812 1007.71 221.673C1006.77 219.964 1005.03 219.109 1002.48 219.109C1000.15 219.109 998.035 220.009 996.121 221.81C994.23 223.61 993.284 226.868 993.284 231.585V250.999H987.132V214.393Z" fill="black"></path> <path d="M1045.44 214.563H1051.7V250.999H1045.44V214.563ZM1045.44 200.789H1051.7V207.762H1045.44V200.789Z" fill="black"></path> <path d="M1061.03 214.393H1066.87V219.588C1068.6 217.446 1070.44 215.908 1072.38 214.974C1074.31 214.039 1076.47 213.572 1078.84 213.572C1084.03 213.572 1087.54 215.384 1089.36 219.007C1090.37 220.989 1090.87 223.826 1090.87 227.518V250.999H1084.61V227.928C1084.61 225.695 1084.28 223.895 1083.62 222.527C1082.53 220.249 1080.54 219.109 1077.67 219.109C1076.22 219.109 1075.02 219.257 1074.08 219.554C1072.4 220.055 1070.92 221.058 1069.64 222.562C1068.62 223.769 1067.94 225.022 1067.62 226.321C1067.33 227.597 1067.18 229.432 1067.18 231.824V250.999H1061.03V214.393Z" fill="black"></path> <path d="M1104.71 241.258C1104.71 243.035 1105.36 244.437 1106.66 245.462C1107.96 246.487 1109.5 247 1111.27 247C1113.44 247 1115.53 246.499 1117.56 245.496C1120.98 243.833 1122.69 241.11 1122.69 237.327V232.371C1121.94 232.85 1120.97 233.248 1119.78 233.567C1118.6 233.886 1117.44 234.114 1116.3 234.251L1112.57 234.729C1110.34 235.026 1108.66 235.493 1107.55 236.131C1105.66 237.202 1104.71 238.911 1104.71 241.258ZM1119.61 228.816C1121.03 228.634 1121.97 228.042 1122.45 227.039C1122.72 226.492 1122.86 225.706 1122.86 224.681C1122.86 222.584 1122.11 221.069 1120.6 220.135C1119.12 219.178 1116.99 218.699 1114.21 218.699C1111 218.699 1108.72 219.565 1107.38 221.297C1106.62 222.254 1106.13 223.678 1105.91 225.569H1100.16C1100.28 221.058 1101.74 217.924 1104.54 216.17C1107.36 214.393 1110.63 213.504 1114.35 213.504C1118.66 213.504 1122.15 214.324 1124.84 215.965C1127.51 217.605 1128.84 220.158 1128.84 223.621V244.71C1128.84 245.348 1128.97 245.861 1129.22 246.248C1129.49 246.635 1130.05 246.829 1130.89 246.829C1131.17 246.829 1131.47 246.818 1131.81 246.795C1132.16 246.749 1132.52 246.692 1132.91 246.624V251.17C1131.95 251.443 1131.22 251.614 1130.72 251.683C1130.22 251.751 1129.54 251.785 1128.67 251.785C1126.55 251.785 1125.01 251.033 1124.06 249.529C1123.55 248.732 1123.2 247.604 1123 246.146C1121.74 247.786 1119.94 249.21 1117.6 250.418C1115.25 251.626 1112.66 252.229 1109.84 252.229C1106.44 252.229 1103.66 251.204 1101.5 249.153C1099.36 247.08 1098.28 244.493 1098.28 241.395C1098.28 237.999 1099.34 235.368 1101.46 233.499C1103.58 231.631 1106.36 230.48 1109.8 230.047L1119.61 228.816Z" fill="black"></path> <path d="M1140.19 204.173H1146.41V214.393H1152.25V219.417H1146.41V243.309C1146.41 244.585 1146.84 245.439 1147.71 245.872C1148.19 246.123 1148.98 246.248 1150.1 246.248C1150.4 246.248 1150.72 246.248 1151.06 246.248C1151.4 246.225 1151.8 246.191 1152.25 246.146V250.999C1151.55 251.204 1150.81 251.352 1150.03 251.443C1149.28 251.535 1148.46 251.58 1147.57 251.58C1144.7 251.58 1142.75 250.851 1141.73 249.393C1140.7 247.911 1140.19 245.997 1140.19 243.65V219.417H1135.23V214.393H1140.19V204.173Z" fill="black"></path> <path d="M1158.44 214.563H1164.7V250.999H1158.44V214.563ZM1158.44 200.789H1164.7V207.762H1158.44V200.789Z" fill="black"></path> <path d="M1174.03 214.393H1179.87V219.588C1181.6 217.446 1183.44 215.908 1185.37 214.974C1187.31 214.039 1189.46 213.572 1191.83 213.572C1197.03 213.572 1200.54 215.384 1202.36 219.007C1203.36 220.989 1203.87 223.826 1203.87 227.518V250.999H1197.61V227.928C1197.61 225.695 1197.28 223.895 1196.62 222.527C1195.53 220.249 1193.54 219.109 1190.67 219.109C1189.21 219.109 1188.02 219.257 1187.08 219.554C1185.4 220.055 1183.92 221.058 1182.64 222.562C1181.61 223.769 1180.94 225.022 1180.62 226.321C1180.33 227.597 1180.18 229.432 1180.18 231.824V250.999H1174.03V214.393Z" fill="black"></path> <path d="M1225.91 213.743C1228.78 213.743 1231.29 214.45 1233.43 215.862C1234.59 216.66 1235.78 217.822 1236.99 219.349V214.734H1242.66V248.025C1242.66 252.674 1241.98 256.342 1240.61 259.031C1238.06 263.999 1233.24 266.482 1226.15 266.482C1222.21 266.482 1218.89 265.594 1216.2 263.816C1213.52 262.062 1212.01 259.305 1211.69 255.545H1217.95C1218.24 257.186 1218.84 258.45 1219.72 259.339C1221.11 260.706 1223.3 261.39 1226.29 261.39C1231 261.39 1234.09 259.726 1235.55 256.399C1236.42 254.44 1236.81 250.942 1236.75 245.906C1235.52 247.775 1234.03 249.165 1232.3 250.076C1230.57 250.988 1228.28 251.443 1225.43 251.443C1221.47 251.443 1217.99 250.042 1215.01 247.239C1212.05 244.414 1210.56 239.754 1210.56 233.26C1210.56 227.13 1212.06 222.345 1215.04 218.904C1218.05 215.464 1221.67 213.743 1225.91 213.743ZM1236.99 232.542C1236.99 228.007 1236.05 224.646 1234.18 222.459C1232.31 220.271 1229.93 219.178 1227.04 219.178C1222.71 219.178 1219.75 221.206 1218.15 225.262C1217.31 227.426 1216.89 230.263 1216.89 233.772C1216.89 237.897 1217.72 241.041 1219.38 243.206C1221.07 245.348 1223.32 246.419 1226.15 246.419C1230.57 246.419 1233.68 244.425 1235.48 240.438C1236.48 238.182 1236.99 235.55 1236.99 232.542Z" fill="black"></path> <path d="M899.699 109.344V104.627C904.143 104.194 907.242 103.476 908.996 102.474C910.751 101.448 912.061 99.0443 912.927 95.2617H917.78V144.002H911.218V109.344H899.699Z" fill="black"></path> <path d="M933.469 109.344V104.627C937.912 104.194 941.011 103.476 942.766 102.474C944.52 101.448 945.83 99.0443 946.696 95.2617H951.55V144.002H944.987V109.344H933.469Z" fill="black"></path> <path d="M983.918 145.335C978.13 145.335 973.926 143.751 971.306 140.584C968.708 137.394 967.409 133.52 967.409 128.963H973.835C974.108 132.13 974.701 134.432 975.612 135.867C977.207 138.442 980.09 139.729 984.26 139.729C987.495 139.729 990.093 138.864 992.053 137.132C994.012 135.4 994.992 133.167 994.992 130.433C994.992 127.06 993.955 124.702 991.882 123.357C989.831 122.013 986.971 121.341 983.303 121.341C982.893 121.341 982.471 121.352 982.038 121.375C981.628 121.375 981.206 121.386 980.773 121.409V115.975C981.411 116.043 981.947 116.089 982.38 116.111C982.813 116.134 983.28 116.146 983.781 116.146C986.083 116.146 987.974 115.781 989.455 115.052C992.053 113.776 993.352 111.497 993.352 108.216C993.352 105.778 992.486 103.898 990.754 102.576C989.022 101.255 987.006 100.594 984.704 100.594C980.603 100.594 977.766 101.961 976.193 104.695C975.327 106.199 974.838 108.341 974.724 111.121H968.64C968.64 107.475 969.369 104.376 970.827 101.824C973.334 97.2669 977.743 94.9883 984.055 94.9883C989.045 94.9883 992.907 96.1048 995.642 98.3379C998.376 100.548 999.743 103.761 999.743 107.977C999.743 110.984 998.934 113.423 997.316 115.291C996.314 116.453 995.015 117.365 993.42 118.025C995.995 118.732 998 120.099 999.436 122.127C1000.89 124.132 1001.62 126.593 1001.62 129.51C1001.62 134.181 1000.08 137.986 997.009 140.926C993.933 143.865 989.569 145.335 983.918 145.335Z" fill="black"></path> <path d="M1007.6 121.341H1024.76V127.664H1007.6V121.341Z" fill="black"></path> <path d="M1046.95 95.0566C1053.28 95.0566 1057.86 97.6657 1060.69 102.884C1062.87 106.917 1063.97 112.443 1063.97 119.461C1063.97 126.115 1062.98 131.618 1060.99 135.97C1058.12 142.213 1053.43 145.335 1046.91 145.335C1041.03 145.335 1036.66 142.783 1033.79 137.679C1031.39 133.418 1030.2 127.698 1030.2 120.521C1030.2 114.961 1030.92 110.187 1032.35 106.199C1035.04 98.7708 1039.9 95.0566 1046.95 95.0566ZM1046.88 139.729C1050.07 139.729 1052.61 138.317 1054.5 135.491C1056.39 132.666 1057.34 127.402 1057.34 119.7C1057.34 114.14 1056.65 109.572 1055.29 105.994C1053.92 102.394 1051.26 100.594 1047.32 100.594C1043.7 100.594 1041.04 102.303 1039.36 105.721C1037.69 109.116 1036.86 114.129 1036.86 120.76C1036.86 125.75 1037.4 129.76 1038.47 132.791C1040.11 137.417 1042.91 139.729 1046.88 139.729Z" fill="black"></path> <path d="M1087.45 94.8516C1092.92 94.8516 1096.72 96.2757 1098.86 99.124C1101.03 101.95 1102.11 104.866 1102.11 107.874H1096.03C1095.66 105.937 1095.08 104.422 1094.28 103.328C1092.8 101.277 1090.56 100.252 1087.55 100.252C1084.11 100.252 1081.38 101.847 1079.35 105.037C1077.32 108.204 1076.19 112.75 1075.96 118.675C1077.38 116.601 1079.15 115.052 1081.3 114.026C1083.26 113.115 1085.44 112.659 1087.86 112.659C1091.96 112.659 1095.54 113.969 1098.59 116.59C1101.64 119.21 1103.17 123.118 1103.17 128.313C1103.17 132.757 1101.72 136.699 1098.83 140.14C1095.94 143.558 1091.81 145.267 1086.46 145.267C1081.88 145.267 1077.92 143.535 1074.6 140.071C1071.27 136.585 1069.61 130.729 1069.61 122.503C1069.61 116.419 1070.35 111.258 1071.83 107.02C1074.68 98.9076 1079.88 94.8516 1087.45 94.8516ZM1087 139.798C1090.24 139.798 1092.65 138.715 1094.25 136.551C1095.87 134.363 1096.68 131.788 1096.68 128.826C1096.68 126.32 1095.96 123.938 1094.52 121.683C1093.09 119.404 1090.48 118.265 1086.7 118.265C1084.05 118.265 1081.73 119.142 1079.72 120.896C1077.74 122.651 1076.75 125.294 1076.75 128.826C1076.75 131.925 1077.65 134.534 1079.45 136.653C1081.27 138.75 1083.79 139.798 1087 139.798Z" fill="black"></path> <path d="M1129.08 126.673V104.49L1113.39 126.673H1129.08ZM1129.18 144.002V132.039H1107.72V126.023L1130.14 94.9199H1135.33V126.673H1142.55V132.039H1135.33V144.002H1129.18Z" fill="black"></path> <path d="M1181.51 95.877V101.243C1179.94 102.77 1177.84 105.424 1175.22 109.207C1172.62 112.99 1170.32 117.068 1168.32 121.443C1166.33 125.704 1164.83 129.59 1163.81 133.099C1163.14 135.354 1162.29 138.989 1161.24 144.002H1154.44C1155.99 134.66 1159.41 125.363 1164.69 116.111C1167.82 110.688 1171.1 106.006 1174.54 102.063H1147.47V95.877H1181.51Z" fill="black"></path> <path d="M3178 0H1744V436H3178V0Z" fill="#939597"></path> <path d="M1744 0H1308V436H1744V0Z" fill="#91ACCF"></path> <path d="M1371.42 318.309H1384.33C1386.88 318.309 1388.94 319.031 1390.5 320.477C1392.06 321.909 1392.84 323.927 1392.84 326.531C1392.84 328.771 1392.15 330.724 1390.75 332.391C1389.36 334.044 1387.22 334.871 1384.33 334.871H1375.3V347H1371.42V318.309ZM1388.92 326.551C1388.92 324.441 1388.14 323.009 1386.57 322.254C1385.71 321.85 1384.54 321.648 1383.04 321.648H1375.3V331.59H1383.04C1384.78 331.59 1386.2 331.219 1387.28 330.477C1388.37 329.734 1388.92 328.426 1388.92 326.551Z" fill="white"></path> <path d="M1397.36 318.309H1400.87V347H1397.36V318.309Z" fill="white"></path> <path d="M1408.86 341.434C1408.86 342.449 1409.23 343.25 1409.97 343.836C1410.71 344.422 1411.59 344.715 1412.61 344.715C1413.85 344.715 1415.04 344.428 1416.2 343.855C1418.16 342.905 1419.13 341.349 1419.13 339.188V336.355C1418.7 336.629 1418.15 336.857 1417.47 337.039C1416.8 337.221 1416.13 337.352 1415.48 337.43L1413.35 337.703C1412.08 337.872 1411.12 338.139 1410.48 338.504C1409.4 339.116 1408.86 340.092 1408.86 341.434ZM1417.38 334.324C1418.18 334.22 1418.72 333.882 1419 333.309C1419.15 332.996 1419.23 332.547 1419.23 331.961C1419.23 330.763 1418.8 329.897 1417.94 329.363C1417.1 328.816 1415.88 328.543 1414.29 328.543C1412.45 328.543 1411.15 329.038 1410.38 330.027C1409.95 330.574 1409.67 331.388 1409.54 332.469H1406.26C1406.33 329.891 1407.16 328.1 1408.76 327.098C1410.38 326.082 1412.24 325.574 1414.37 325.574C1416.83 325.574 1418.83 326.043 1420.36 326.98C1421.89 327.918 1422.65 329.376 1422.65 331.355V343.406C1422.65 343.771 1422.72 344.064 1422.86 344.285C1423.02 344.507 1423.34 344.617 1423.82 344.617C1423.98 344.617 1424.15 344.611 1424.35 344.598C1424.54 344.572 1424.75 344.539 1424.97 344.5V347.098C1424.43 347.254 1424.01 347.352 1423.72 347.391C1423.44 347.43 1423.05 347.449 1422.55 347.449C1421.34 347.449 1420.46 347.02 1419.91 346.16C1419.63 345.704 1419.43 345.06 1419.31 344.227C1418.59 345.164 1417.56 345.978 1416.22 346.668C1414.88 347.358 1413.4 347.703 1411.79 347.703C1409.85 347.703 1408.26 347.117 1407.02 345.945C1405.8 344.76 1405.19 343.283 1405.19 341.512C1405.19 339.572 1405.79 338.068 1407 337C1408.21 335.932 1409.8 335.275 1411.77 335.027L1417.38 334.324Z" fill="white"></path> <path d="M1436.5 325.477C1438.85 325.477 1440.77 326.049 1442.24 327.195C1443.72 328.341 1444.61 330.314 1444.91 333.113H1441.5C1441.29 331.824 1440.81 330.757 1440.07 329.91C1439.33 329.051 1438.14 328.621 1436.5 328.621C1434.26 328.621 1432.65 329.715 1431.69 331.902C1431.07 333.322 1430.75 335.073 1430.75 337.156C1430.75 339.253 1431.2 341.017 1432.08 342.449C1432.97 343.882 1434.36 344.598 1436.26 344.598C1437.72 344.598 1438.87 344.155 1439.72 343.27C1440.58 342.371 1441.17 341.147 1441.5 339.598H1444.91C1444.52 342.371 1443.55 344.402 1441.98 345.691C1440.42 346.967 1438.42 347.605 1435.99 347.605C1433.25 347.605 1431.07 346.609 1429.45 344.617C1427.82 342.612 1427 340.112 1427 337.117C1427 333.445 1427.9 330.587 1429.68 328.543C1431.46 326.499 1433.74 325.477 1436.5 325.477Z" fill="white"></path> <path d="M1448.43 326.18H1452V347H1448.43V326.18ZM1448.43 318.309H1452V322.293H1448.43V318.309Z" fill="white"></path> <path d="M1459.56 336.785C1459.56 339.025 1460.04 340.9 1460.99 342.41C1461.94 343.921 1463.46 344.676 1465.56 344.676C1467.19 344.676 1468.52 343.979 1469.56 342.586C1470.62 341.18 1471.14 339.168 1471.14 336.551C1471.14 333.908 1470.6 331.954 1469.52 330.691C1468.44 329.415 1467.11 328.777 1465.52 328.777C1463.75 328.777 1462.31 329.454 1461.2 330.809C1460.11 332.163 1459.56 334.155 1459.56 336.785ZM1464.86 325.711C1466.46 325.711 1467.8 326.049 1468.88 326.727C1469.5 327.117 1470.21 327.801 1471.01 328.777V318.211H1474.39V347H1471.22V344.09C1470.4 345.379 1469.43 346.31 1468.31 346.883C1467.19 347.456 1465.91 347.742 1464.46 347.742C1462.13 347.742 1460.12 346.766 1458.41 344.812C1456.7 342.846 1455.85 340.236 1455.85 336.98C1455.85 333.934 1456.63 331.297 1458.18 329.07C1459.74 326.831 1461.96 325.711 1464.86 325.711Z" fill="white"></path> <path d="M1501.98 330.438C1503.62 330.438 1504.9 330.21 1505.81 329.754C1507.24 329.038 1507.96 327.749 1507.96 325.887C1507.96 324.012 1507.2 322.749 1505.68 322.098C1504.82 321.733 1503.54 321.551 1501.85 321.551H1494.91V330.438H1501.98ZM1503.29 343.68C1505.68 343.68 1507.38 342.99 1508.39 341.609C1509.03 340.737 1509.35 339.682 1509.35 338.445C1509.35 336.362 1508.42 334.943 1506.55 334.188C1505.57 333.784 1504.26 333.582 1502.63 333.582H1494.91V343.68H1503.29ZM1491.11 318.309H1503.43C1506.79 318.309 1509.18 319.311 1510.6 321.316C1511.43 322.501 1511.85 323.868 1511.85 325.418C1511.85 327.228 1511.33 328.712 1510.3 329.871C1509.77 330.483 1509 331.043 1508 331.551C1509.47 332.111 1510.57 332.742 1511.3 333.445C1512.59 334.695 1513.23 336.421 1513.23 338.621C1513.23 340.47 1512.65 342.143 1511.5 343.641C1509.76 345.88 1507.01 347 1503.23 347H1491.11V318.309Z" fill="white"></path> <path d="M1517.51 318.309H1521.03V347H1517.51V318.309Z" fill="white"></path> <path d="M1529.84 326.082V339.969C1529.84 341.036 1530.01 341.909 1530.34 342.586C1530.97 343.836 1532.13 344.461 1533.84 344.461C1536.29 344.461 1537.95 343.367 1538.84 341.18C1539.32 340.008 1539.56 338.4 1539.56 336.355V326.082H1543.08V347H1539.76L1539.8 343.914C1539.34 344.708 1538.77 345.379 1538.1 345.926C1536.76 347.02 1535.13 347.566 1533.21 347.566C1530.23 347.566 1528.2 346.57 1527.12 344.578C1526.54 343.51 1526.24 342.085 1526.24 340.301V326.082H1529.84Z" fill="white"></path> <path d="M1557.3 325.613C1558.78 325.613 1560.22 325.965 1561.61 326.668C1563.01 327.358 1564.07 328.257 1564.8 329.363C1565.5 330.418 1565.97 331.648 1566.2 333.055C1566.41 334.018 1566.52 335.555 1566.52 337.664H1551.18C1551.25 339.786 1551.75 341.492 1552.69 342.781C1553.62 344.057 1555.08 344.695 1557.04 344.695C1558.88 344.695 1560.34 344.09 1561.44 342.879C1562.06 342.176 1562.51 341.362 1562.77 340.438H1566.22C1566.13 341.206 1565.83 342.065 1565.3 343.016C1564.8 343.953 1564.22 344.721 1563.59 345.32C1562.52 346.362 1561.2 347.065 1559.62 347.43C1558.77 347.638 1557.82 347.742 1556.75 347.742C1554.15 347.742 1551.94 346.798 1550.13 344.91C1548.32 343.009 1547.41 340.353 1547.41 336.941C1547.41 333.582 1548.33 330.854 1550.15 328.758C1551.97 326.661 1554.35 325.613 1557.3 325.613ZM1562.9 334.871C1562.76 333.348 1562.43 332.13 1561.91 331.219C1560.94 329.526 1559.33 328.68 1557.08 328.68C1555.47 328.68 1554.11 329.266 1553.02 330.438C1551.93 331.596 1551.35 333.074 1551.28 334.871H1562.9Z" fill="white"></path> <path d="M1816.71 200.791V231.826C1816.71 235.472 1817.4 238.503 1818.77 240.918C1820.79 244.564 1824.21 246.387 1829.02 246.387C1834.78 246.387 1838.7 244.416 1840.78 240.474C1841.89 238.332 1842.45 235.449 1842.45 231.826V200.791H1849.36V228.989C1849.36 235.164 1848.52 239.915 1846.86 243.242C1843.81 249.303 1838.04 252.334 1829.57 252.334C1821.09 252.334 1815.34 249.303 1812.31 243.242C1810.64 239.915 1809.81 235.164 1809.81 228.989V200.791H1816.71Z" fill="black"></path> <path d="M1859.27 200.791H1865.42V251.001H1859.27V200.791Z" fill="black"></path> <path d="M1875.91 204.175H1882.13V214.395H1887.98V219.419H1882.13V243.311C1882.13 244.587 1882.57 245.441 1883.43 245.874C1883.91 246.125 1884.71 246.25 1885.83 246.25C1886.12 246.25 1886.44 246.25 1886.78 246.25C1887.12 246.227 1887.52 246.193 1887.98 246.147V251.001C1887.27 251.206 1886.53 251.354 1885.76 251.445C1885.01 251.536 1884.19 251.582 1883.3 251.582C1880.43 251.582 1878.48 250.853 1877.45 249.395C1876.43 247.913 1875.91 245.999 1875.91 243.652V219.419H1870.96V214.395H1875.91V204.175Z" fill="black"></path> <path d="M1894.17 214.565H1900.42V251.001H1894.17V214.565ZM1894.17 200.791H1900.42V207.764H1894.17V200.791Z" fill="black"></path> <path d="M1909.75 214.395H1915.84V219.59C1917.29 217.79 1918.62 216.479 1919.8 215.659C1921.83 214.269 1924.13 213.574 1926.71 213.574C1929.62 213.574 1931.97 214.292 1933.75 215.728C1934.75 216.548 1935.66 217.756 1936.48 219.351C1937.85 217.391 1939.45 215.944 1941.3 215.01C1943.15 214.053 1945.22 213.574 1947.52 213.574C1952.44 213.574 1955.79 215.352 1957.57 218.906C1958.53 220.82 1959 223.395 1959 226.631V251.001H1952.61V225.571C1952.61 223.133 1952 221.458 1950.77 220.547C1949.56 219.635 1948.08 219.18 1946.32 219.18C1943.91 219.18 1941.82 219.989 1940.07 221.606C1938.34 223.224 1937.47 225.924 1937.47 229.707V251.001H1931.22V227.109C1931.22 224.626 1930.92 222.814 1930.33 221.675C1929.39 219.966 1927.65 219.111 1925.1 219.111C1922.77 219.111 1920.66 220.011 1918.74 221.812C1916.85 223.612 1915.9 226.87 1915.9 231.587V251.001H1909.75V214.395Z" fill="black"></path> <path d="M1972.78 241.26C1972.78 243.037 1973.43 244.438 1974.73 245.464C1976.03 246.489 1977.56 247.002 1979.34 247.002C1981.51 247.002 1983.6 246.501 1985.63 245.498C1989.05 243.835 1990.76 241.112 1990.76 237.329V232.373C1990.01 232.852 1989.04 233.25 1987.85 233.569C1986.67 233.888 1985.51 234.116 1984.37 234.253L1980.64 234.731C1978.41 235.028 1976.73 235.495 1975.62 236.133C1973.72 237.204 1972.78 238.913 1972.78 241.26ZM1987.68 228.818C1989.09 228.636 1990.04 228.044 1990.52 227.041C1990.79 226.494 1990.93 225.708 1990.93 224.683C1990.93 222.586 1990.18 221.071 1988.67 220.137C1987.19 219.18 1985.06 218.701 1982.28 218.701C1979.07 218.701 1976.79 219.567 1975.45 221.299C1974.69 222.256 1974.2 223.68 1973.98 225.571H1968.23C1968.35 221.06 1969.81 217.926 1972.61 216.172C1975.43 214.395 1978.7 213.506 1982.42 213.506C1986.72 213.506 1990.22 214.326 1992.91 215.967C1995.58 217.607 1996.91 220.16 1996.91 223.623V244.712C1996.91 245.35 1997.04 245.863 1997.29 246.25C1997.56 246.637 1998.12 246.831 1998.96 246.831C1999.23 246.831 1999.54 246.82 1999.88 246.797C2000.23 246.751 2000.59 246.694 2000.98 246.626V251.172C2000.02 251.445 1999.29 251.616 1998.79 251.685C1998.29 251.753 1997.61 251.787 1996.74 251.787C1994.62 251.787 1993.08 251.035 1992.12 249.531C1991.62 248.734 1991.27 247.606 1991.07 246.147C1989.81 247.788 1988.01 249.212 1985.67 250.42C1983.32 251.628 1980.73 252.231 1977.91 252.231C1974.51 252.231 1971.73 251.206 1969.57 249.155C1967.42 247.082 1966.35 244.495 1966.35 241.396C1966.35 238.001 1967.41 235.369 1969.53 233.501C1971.65 231.632 1974.43 230.482 1977.87 230.049L1987.68 228.818Z" fill="black"></path> <path d="M2008.26 204.175H2014.48V214.395H2020.32V219.419H2014.48V243.311C2014.48 244.587 2014.91 245.441 2015.78 245.874C2016.26 246.125 2017.05 246.25 2018.17 246.25C2018.47 246.25 2018.79 246.25 2019.13 246.25C2019.47 246.227 2019.87 246.193 2020.32 246.147V251.001C2019.62 251.206 2018.88 251.354 2018.1 251.445C2017.35 251.536 2016.53 251.582 2015.64 251.582C2012.77 251.582 2010.82 250.853 2009.8 249.395C2008.77 247.913 2008.26 245.999 2008.26 243.652V219.419H2003.3V214.395H2008.26V204.175Z" fill="black"></path> <path d="M2041.75 213.574C2044.35 213.574 2046.87 214.189 2049.31 215.42C2051.75 216.628 2053.6 218.2 2054.88 220.137C2056.11 221.982 2056.93 224.136 2057.34 226.597C2057.7 228.283 2057.89 230.972 2057.89 234.663H2031.06C2031.17 238.377 2032.05 241.362 2033.69 243.618C2035.33 245.851 2037.87 246.968 2041.31 246.968C2044.52 246.968 2047.09 245.908 2049 243.789C2050.09 242.559 2050.87 241.134 2051.32 239.517H2057.37C2057.21 240.861 2056.68 242.365 2055.77 244.028C2054.88 245.669 2053.88 247.013 2052.76 248.062C2050.89 249.884 2048.58 251.115 2045.82 251.753C2044.34 252.118 2042.67 252.3 2040.8 252.3C2036.24 252.3 2032.38 250.648 2029.21 247.344C2026.04 244.017 2024.46 239.368 2024.46 233.398C2024.46 227.52 2026.05 222.746 2029.24 219.077C2032.43 215.409 2036.6 213.574 2041.75 213.574ZM2051.56 229.775C2051.31 227.109 2050.73 224.979 2049.82 223.384C2048.13 220.422 2045.32 218.94 2041.38 218.94C2038.55 218.94 2036.18 219.966 2034.27 222.017C2032.35 224.045 2031.34 226.631 2031.23 229.775H2051.56Z" fill="black"></path> <path d="M2107.48 199.492C2112.2 199.492 2116.28 200.404 2119.72 202.227C2124.71 204.847 2127.76 209.438 2128.88 216.001H2122.14C2121.32 212.332 2119.63 209.666 2117.05 208.003C2114.48 206.317 2111.23 205.474 2107.31 205.474C2102.66 205.474 2098.74 207.217 2095.55 210.703C2092.39 214.189 2090.8 219.385 2090.8 226.289C2090.8 232.259 2092.11 237.124 2094.73 240.884C2097.35 244.621 2101.63 246.489 2107.55 246.489C2112.08 246.489 2115.83 245.179 2118.79 242.559C2121.78 239.915 2123.31 235.654 2123.38 229.775H2107.65V224.136H2129.7V251.001H2125.32L2123.68 244.541C2121.38 247.07 2119.34 248.825 2117.56 249.805C2114.58 251.491 2110.79 252.334 2106.18 252.334C2100.24 252.334 2095.12 250.409 2090.84 246.558C2086.16 241.727 2083.83 235.096 2083.83 226.665C2083.83 218.257 2086.11 211.569 2090.67 206.602C2094.99 201.862 2100.6 199.492 2107.48 199.492Z" fill="black"></path> <path d="M2139.61 214.395H2145.46V220.718C2145.93 219.487 2147.11 217.995 2148.98 216.24C2150.84 214.463 2153 213.574 2155.44 213.574C2155.55 213.574 2155.74 213.586 2156.02 213.608C2156.29 213.631 2156.76 213.677 2157.42 213.745V220.239C2157.05 220.171 2156.71 220.125 2156.39 220.103C2156.1 220.08 2155.77 220.068 2155.4 220.068C2152.3 220.068 2149.92 221.071 2148.26 223.076C2146.59 225.059 2145.76 227.349 2145.76 229.946V251.001H2139.61V214.395Z" fill="black"></path> <path d="M2177.99 213.574C2180.59 213.574 2183.11 214.189 2185.55 215.42C2187.99 216.628 2189.84 218.2 2191.12 220.137C2192.35 221.982 2193.17 224.136 2193.58 226.597C2193.94 228.283 2194.13 230.972 2194.13 234.663H2167.3C2167.41 238.377 2168.29 241.362 2169.93 243.618C2171.57 245.851 2174.11 246.968 2177.55 246.968C2180.76 246.968 2183.33 245.908 2185.24 243.789C2186.33 242.559 2187.11 241.134 2187.56 239.517H2193.61C2193.45 240.861 2192.92 242.365 2192.01 244.028C2191.12 245.669 2190.12 247.013 2189 248.062C2187.13 249.884 2184.82 251.115 2182.06 251.753C2180.58 252.118 2178.91 252.3 2177.04 252.3C2172.48 252.3 2168.62 250.648 2165.45 247.344C2162.28 244.017 2160.7 239.368 2160.7 233.398C2160.7 227.52 2162.29 222.746 2165.48 219.077C2168.67 215.409 2172.84 213.574 2177.99 213.574ZM2187.8 229.775C2187.55 227.109 2186.97 224.979 2186.06 223.384C2184.37 220.422 2181.56 218.94 2177.62 218.94C2174.79 218.94 2172.42 219.966 2170.51 222.017C2168.59 224.045 2167.58 226.631 2167.47 229.775H2187.8Z" fill="black"></path> <path d="M2224.58 214.395H2231.38C2230.52 216.742 2228.59 222.096 2225.61 230.459C2223.37 236.748 2221.5 241.875 2220 245.84C2216.45 255.182 2213.94 260.879 2212.48 262.93C2211.02 264.98 2208.52 266.006 2204.96 266.006C2204.1 266.006 2203.42 265.972 2202.95 265.903C2202.49 265.835 2201.92 265.71 2201.24 265.527V259.922C2202.31 260.218 2203.08 260.4 2203.56 260.469C2204.04 260.537 2204.46 260.571 2204.83 260.571C2205.96 260.571 2206.8 260.378 2207.32 259.99C2207.87 259.626 2208.32 259.17 2208.69 258.623C2208.8 258.441 2209.21 257.507 2209.92 255.82C2210.62 254.134 2211.14 252.881 2211.46 252.061L2197.92 214.395H2204.89L2214.7 244.199L2224.58 214.395Z" fill="black"></path> <path d="M1810.7 109.342V104.625C1815.14 104.192 1818.24 103.474 1820 102.472C1821.75 101.446 1823.06 99.0423 1823.93 95.2598H1828.78V144H1822.22V109.342H1810.7Z" fill="black"></path> <path d="M1879.57 95.875V101.241C1878 102.768 1875.9 105.423 1873.28 109.205C1870.68 112.988 1868.38 117.066 1866.38 121.441C1864.4 125.702 1862.89 129.588 1861.87 133.097C1861.21 135.353 1860.35 138.987 1859.3 144H1852.5C1854.05 134.658 1857.47 125.361 1862.75 116.109C1865.88 110.686 1869.16 106.004 1872.6 102.062H1845.53V95.875H1879.57Z" fill="black"></path> <path d="M1884.83 121.339H1901.99V127.662H1884.83V121.339Z" fill="black"></path> <path d="M1913.89 131.524C1914.3 135.034 1915.93 137.46 1918.78 138.805C1920.23 139.488 1921.92 139.83 1923.83 139.83C1927.48 139.83 1930.18 138.668 1931.93 136.344C1933.69 134.02 1934.57 131.445 1934.57 128.619C1934.57 125.201 1933.52 122.558 1931.42 120.689C1929.35 118.821 1926.85 117.887 1923.94 117.887C1921.82 117.887 1919.99 118.297 1918.47 119.117C1916.96 119.938 1915.68 121.077 1914.61 122.535L1909.27 122.228L1913 95.875H1938.43V101.822H1917.61L1915.53 115.426C1916.67 114.56 1917.75 113.91 1918.78 113.478C1920.6 112.726 1922.71 112.35 1925.1 112.35C1929.59 112.35 1933.39 113.797 1936.51 116.69C1939.64 119.584 1941.2 123.253 1941.2 127.696C1941.2 132.322 1939.76 136.401 1936.89 139.933C1934.04 143.465 1929.49 145.23 1923.22 145.23C1919.23 145.23 1915.7 144.114 1912.62 141.881C1909.57 139.625 1907.86 136.173 1907.5 131.524H1913.89Z" fill="black"></path> <path d="M1950.9 109.342V104.625C1955.35 104.192 1958.45 103.474 1960.2 102.472C1961.96 101.446 1963.27 99.0423 1964.13 95.2598H1968.99V144H1962.42V109.342H1950.9Z" fill="black"></path> <path d="M2002.11 95.0547C2008.44 95.0547 2013.02 97.6637 2015.85 102.882C2018.03 106.915 2019.13 112.441 2019.13 119.459C2019.13 126.113 2018.14 131.616 2016.15 135.968C2013.28 142.211 2008.59 145.333 2002.07 145.333C1996.19 145.333 1991.82 142.781 1988.95 137.677C1986.55 133.416 1985.36 127.696 1985.36 120.519C1985.36 114.959 1986.08 110.185 1987.51 106.197C1990.2 98.7689 1995.06 95.0547 2002.11 95.0547ZM2002.04 139.728C2005.23 139.728 2007.77 138.315 2009.66 135.489C2011.55 132.664 2012.5 127.4 2012.5 119.698C2012.5 114.138 2011.81 109.57 2010.45 105.992C2009.08 102.392 2006.42 100.592 2002.48 100.592C1998.86 100.592 1996.2 102.301 1994.52 105.719C1992.85 109.114 1992.02 114.127 1992.02 120.758C1992.02 125.748 1992.56 129.758 1993.63 132.789C1995.27 137.415 1998.07 139.728 2002.04 139.728Z" fill="black"></path> <path d="M2045.27 126.671V104.488L2029.59 126.671H2045.27ZM2045.38 144V132.037H2023.91V126.021L2046.33 94.918H2051.53V126.671H2058.74V132.037H2051.53V144H2045.38Z" fill="black"></path> <path d="M1371.83 261.195V258.5C1374.37 258.253 1376.14 257.842 1377.14 257.27C1378.14 256.684 1378.89 255.31 1379.39 253.148H1382.16V281H1378.41V261.195H1371.83Z" fill="white"></path> <path d="M1395.21 273.871C1395.44 275.876 1396.37 277.263 1398 278.031C1398.83 278.422 1399.8 278.617 1400.89 278.617C1402.97 278.617 1404.52 277.953 1405.52 276.625C1406.52 275.297 1407.02 273.826 1407.02 272.211C1407.02 270.258 1406.42 268.747 1405.23 267.68C1404.04 266.612 1402.62 266.078 1400.95 266.078C1399.74 266.078 1398.7 266.312 1397.82 266.781C1396.96 267.25 1396.23 267.901 1395.62 268.734L1392.57 268.559L1394.7 253.5H1409.23V256.898H1397.34L1396.14 264.672C1396.8 264.177 1397.41 263.806 1398 263.559C1399.04 263.129 1400.25 262.914 1401.61 262.914C1404.18 262.914 1406.35 263.741 1408.14 265.395C1409.92 267.048 1410.81 269.145 1410.81 271.684C1410.81 274.327 1409.99 276.658 1408.35 278.676C1406.72 280.694 1404.12 281.703 1400.54 281.703C1398.26 281.703 1396.24 281.065 1394.48 279.789C1392.74 278.5 1391.76 276.527 1391.55 273.871H1395.21Z" fill="white"></path> <path d="M1414.19 268.051H1424V271.664H1414.19V268.051Z" fill="white"></path> <path d="M1436.24 281.762C1432.93 281.762 1430.53 280.857 1429.04 279.047C1427.55 277.224 1426.81 275.01 1426.81 272.406H1430.48C1430.64 274.216 1430.98 275.531 1431.5 276.352C1432.41 277.823 1434.05 278.559 1436.44 278.559C1438.29 278.559 1439.77 278.064 1440.89 277.074C1442.01 276.085 1442.57 274.809 1442.57 273.246C1442.57 271.319 1441.98 269.971 1440.79 269.203C1439.62 268.435 1437.99 268.051 1435.89 268.051C1435.66 268.051 1435.42 268.057 1435.17 268.07C1434.93 268.07 1434.69 268.077 1434.45 268.09V264.984C1434.81 265.023 1435.12 265.049 1435.36 265.062C1435.61 265.076 1435.88 265.082 1436.16 265.082C1437.48 265.082 1438.56 264.874 1439.41 264.457C1440.89 263.728 1441.63 262.426 1441.63 260.551C1441.63 259.158 1441.14 258.083 1440.15 257.328C1439.16 256.573 1438.01 256.195 1436.69 256.195C1434.35 256.195 1432.73 256.977 1431.83 258.539C1431.33 259.398 1431.05 260.622 1430.99 262.211H1427.51C1427.51 260.128 1427.93 258.357 1428.76 256.898C1430.19 254.294 1432.71 252.992 1436.32 252.992C1439.17 252.992 1441.38 253.63 1442.94 254.906C1444.5 256.169 1445.29 258.005 1445.29 260.414C1445.29 262.133 1444.82 263.526 1443.9 264.594C1443.33 265.258 1442.58 265.779 1441.67 266.156C1443.14 266.56 1444.29 267.341 1445.11 268.5C1445.94 269.646 1446.36 271.052 1446.36 272.719C1446.36 275.388 1445.48 277.562 1443.72 279.242C1441.96 280.922 1439.47 281.762 1436.24 281.762Z" fill="white"></path> <path d="M1453.43 274.242C1453.53 276.182 1454.28 277.523 1455.68 278.266C1456.39 278.656 1457.2 278.852 1458.1 278.852C1459.78 278.852 1461.21 278.155 1462.39 276.762C1463.58 275.355 1464.42 272.51 1464.91 268.227C1464.13 269.464 1463.16 270.336 1462 270.844C1460.86 271.339 1459.62 271.586 1458.29 271.586C1455.6 271.586 1453.46 270.746 1451.89 269.066C1450.32 267.387 1449.54 265.225 1449.54 262.582C1449.54 260.043 1450.32 257.81 1451.87 255.883C1453.42 253.956 1455.7 252.992 1458.72 252.992C1462.8 252.992 1465.61 254.828 1467.16 258.5C1468.02 260.518 1468.45 263.044 1468.45 266.078C1468.45 269.503 1467.93 272.536 1466.91 275.18C1465.2 279.581 1462.31 281.781 1458.23 281.781C1455.5 281.781 1453.42 281.065 1452 279.633C1450.58 278.201 1449.88 276.404 1449.88 274.242H1453.43ZM1458.76 268.5C1460.15 268.5 1461.42 268.044 1462.57 267.133C1463.73 266.208 1464.31 264.6 1464.31 262.309C1464.31 260.251 1463.79 258.721 1462.75 257.719C1461.72 256.703 1460.4 256.195 1458.8 256.195C1457.08 256.195 1455.71 256.775 1454.7 257.934C1453.7 259.079 1453.2 260.616 1453.2 262.543C1453.2 264.366 1453.64 265.818 1454.52 266.898C1455.41 267.966 1456.82 268.5 1458.76 268.5Z" fill="white"></path> <path d="M1471.63 281C1471.76 278.591 1472.26 276.495 1473.12 274.711C1473.99 272.927 1475.68 271.306 1478.2 269.848L1481.95 267.68C1483.62 266.703 1484.8 265.87 1485.48 265.18C1486.55 264.099 1487.08 262.862 1487.08 261.469C1487.08 259.841 1486.59 258.552 1485.62 257.602C1484.64 256.638 1483.34 256.156 1481.71 256.156C1479.3 256.156 1477.64 257.068 1476.71 258.891C1476.22 259.867 1475.94 261.221 1475.89 262.953H1472.32C1472.36 260.518 1472.8 258.533 1473.66 256.996C1475.19 254.288 1477.88 252.934 1481.73 252.934C1484.93 252.934 1487.27 253.799 1488.74 255.531C1490.23 257.263 1490.97 259.19 1490.97 261.312C1490.97 263.552 1490.18 265.466 1488.61 267.055C1487.69 267.979 1486.06 269.099 1483.7 270.414L1481.03 271.898C1479.75 272.602 1478.75 273.272 1478.02 273.91C1476.72 275.043 1475.9 276.299 1475.56 277.68H1490.83V281H1471.63Z" fill="white"></path> <path d="M1503.47 253.031C1507.09 253.031 1509.71 254.522 1511.32 257.504C1512.57 259.809 1513.2 262.966 1513.2 266.977C1513.2 270.779 1512.63 273.923 1511.5 276.41C1509.86 279.978 1507.17 281.762 1503.45 281.762C1500.09 281.762 1497.59 280.303 1495.95 277.387C1494.58 274.952 1493.9 271.684 1493.9 267.582C1493.9 264.405 1494.31 261.677 1495.13 259.398C1496.67 255.154 1499.45 253.031 1503.47 253.031ZM1503.43 278.559C1505.25 278.559 1506.7 277.751 1507.79 276.137C1508.87 274.522 1509.41 271.514 1509.41 267.113C1509.41 263.936 1509.02 261.326 1508.23 259.281C1507.45 257.224 1505.94 256.195 1503.68 256.195C1501.61 256.195 1500.1 257.172 1499.13 259.125C1498.18 261.065 1497.71 263.93 1497.71 267.719C1497.71 270.57 1498.01 272.862 1498.62 274.594C1499.56 277.237 1501.16 278.559 1503.43 278.559Z" fill="white"></path> </svg> 