<?xml version="1.0" encoding="UTF-8"?> <svg xmlns="http://www.w3.org/2000/svg" width="1308" height="872" viewBox="0 0 1308 872" fill="none"> <path d="M436 0H0V436H436V0Z" fill="#F0EDEA"></path> <path d="M1308 436H872V872H1308V436Z" fill="#F5DF4D"></path> <path d="M1308 0H436V436H1308V0Z" fill="#ACA3CA"></path> <path d="M872 436H0V872H872V436Z" fill="#E7A5BC"></path> <path d="M63.0469 318.309H66.9336V343.582H81.4648V347H63.0469V318.309Z" fill="black"></path> <path d="M93.5547 325.613C95.0391 325.613 96.4779 325.965 97.8711 326.668C99.2643 327.358 100.326 328.257 101.055 329.363C101.758 330.418 102.227 331.648 102.461 333.055C102.669 334.018 102.773 335.555 102.773 337.664H87.4414C87.5065 339.786 88.0078 341.492 88.9453 342.781C89.8828 344.057 91.3346 344.695 93.3008 344.695C95.1367 344.695 96.6016 344.09 97.6953 342.879C98.3203 342.176 98.763 341.362 99.0234 340.438H102.48C102.389 341.206 102.083 342.065 101.562 343.016C101.055 343.953 100.482 344.721 99.8438 345.32C98.776 346.362 97.4544 347.065 95.8789 347.43C95.0326 347.638 94.0755 347.742 93.0078 347.742C90.4036 347.742 88.1966 346.798 86.3867 344.91C84.5768 343.009 83.6719 340.353 83.6719 336.941C83.6719 333.582 84.5833 330.854 86.4062 328.758C88.2292 326.661 90.612 325.613 93.5547 325.613ZM99.1602 334.871C99.0169 333.348 98.6849 332.13 98.1641 331.219C97.2005 329.526 95.5924 328.68 93.3398 328.68C91.7253 328.68 90.3711 329.266 89.2773 330.438C88.1836 331.596 87.6042 333.074 87.5391 334.871H99.1602Z" fill="black"></path> <path d="M109.805 341.434C109.805 342.449 110.176 343.25 110.918 343.836C111.66 344.422 112.539 344.715 113.555 344.715C114.792 344.715 115.99 344.428 117.148 343.855C119.102 342.905 120.078 341.349 120.078 339.188V336.355C119.648 336.629 119.095 336.857 118.418 337.039C117.741 337.221 117.077 337.352 116.426 337.43L114.297 337.703C113.021 337.872 112.064 338.139 111.426 338.504C110.345 339.116 109.805 340.092 109.805 341.434ZM118.32 334.324C119.128 334.22 119.668 333.882 119.941 333.309C120.098 332.996 120.176 332.547 120.176 331.961C120.176 330.763 119.746 329.897 118.887 329.363C118.04 328.816 116.823 328.543 115.234 328.543C113.398 328.543 112.096 329.038 111.328 330.027C110.898 330.574 110.618 331.388 110.488 332.469H107.207C107.272 329.891 108.105 328.1 109.707 327.098C111.322 326.082 113.19 325.574 115.312 325.574C117.773 325.574 119.772 326.043 121.309 326.98C122.832 327.918 123.594 329.376 123.594 331.355V343.406C123.594 343.771 123.665 344.064 123.809 344.285C123.965 344.507 124.284 344.617 124.766 344.617C124.922 344.617 125.098 344.611 125.293 344.598C125.488 344.572 125.697 344.539 125.918 344.5V347.098C125.371 347.254 124.954 347.352 124.668 347.391C124.382 347.43 123.991 347.449 123.496 347.449C122.285 347.449 121.406 347.02 120.859 346.16C120.573 345.704 120.371 345.06 120.254 344.227C119.538 345.164 118.509 345.978 117.168 346.668C115.827 347.358 114.349 347.703 112.734 347.703C110.794 347.703 109.206 347.117 107.969 345.945C106.745 344.76 106.133 343.283 106.133 341.512C106.133 339.572 106.738 338.068 107.949 337C109.16 335.932 110.749 335.275 112.715 335.027L118.32 334.324Z" fill="black"></path> <path d="M131.602 336.785C131.602 339.025 132.077 340.9 133.027 342.41C133.978 343.921 135.501 344.676 137.598 344.676C139.225 344.676 140.56 343.979 141.602 342.586C142.656 341.18 143.184 339.168 143.184 336.551C143.184 333.908 142.643 331.954 141.562 330.691C140.482 329.415 139.147 328.777 137.559 328.777C135.788 328.777 134.349 329.454 133.242 330.809C132.148 332.163 131.602 334.155 131.602 336.785ZM136.895 325.711C138.496 325.711 139.837 326.049 140.918 326.727C141.543 327.117 142.253 327.801 143.047 328.777V318.211H146.426V347H143.262V344.09C142.441 345.379 141.471 346.31 140.352 346.883C139.232 347.456 137.949 347.742 136.504 347.742C134.173 347.742 132.155 346.766 130.449 344.812C128.743 342.846 127.891 340.236 127.891 336.98C127.891 333.934 128.665 331.297 130.215 329.07C131.777 326.831 134.004 325.711 136.895 325.711Z" fill="black"></path> <path d="M175.332 317.527C178.965 317.527 181.784 318.484 183.789 320.398C185.794 322.312 186.908 324.487 187.129 326.922H183.34C182.91 325.073 182.051 323.608 180.762 322.527C179.486 321.447 177.689 320.906 175.371 320.906C172.546 320.906 170.26 321.902 168.516 323.895C166.784 325.874 165.918 328.914 165.918 333.016C165.918 336.375 166.699 339.103 168.262 341.199C169.837 343.283 172.181 344.324 175.293 344.324C178.158 344.324 180.339 343.224 181.836 341.023C182.63 339.865 183.223 338.341 183.613 336.453H187.402C187.064 339.474 185.944 342.007 184.043 344.051C181.764 346.512 178.691 347.742 174.824 347.742C171.491 347.742 168.691 346.733 166.426 344.715C163.444 342.046 161.953 337.924 161.953 332.352C161.953 328.12 163.073 324.65 165.312 321.941C167.734 318.999 171.074 317.527 175.332 317.527Z" fill="black"></path> <path d="M191.777 326.082H195.117V329.695C195.391 328.992 196.061 328.139 197.129 327.137C198.197 326.121 199.427 325.613 200.82 325.613C200.885 325.613 200.996 325.62 201.152 325.633C201.309 325.646 201.576 325.672 201.953 325.711V329.422C201.745 329.383 201.549 329.357 201.367 329.344C201.198 329.331 201.009 329.324 200.801 329.324C199.03 329.324 197.669 329.897 196.719 331.043C195.768 332.176 195.293 333.484 195.293 334.969V347H191.777V326.082Z" fill="black"></path> <path d="M218.066 326.082H221.953C221.458 327.423 220.358 330.483 218.652 335.262C217.376 338.855 216.309 341.785 215.449 344.051C213.418 349.389 211.986 352.645 211.152 353.816C210.319 354.988 208.887 355.574 206.855 355.574C206.361 355.574 205.977 355.555 205.703 355.516C205.443 355.477 205.117 355.405 204.727 355.301V352.098C205.339 352.267 205.781 352.371 206.055 352.41C206.328 352.449 206.569 352.469 206.777 352.469C207.428 352.469 207.904 352.358 208.203 352.137C208.516 351.928 208.776 351.668 208.984 351.355C209.049 351.251 209.284 350.717 209.688 349.754C210.091 348.79 210.384 348.074 210.566 347.605L202.832 326.082H206.816L212.422 343.113L218.066 326.082Z" fill="black"></path> <path d="M227.09 340.438C227.194 341.609 227.487 342.508 227.969 343.133C228.854 344.266 230.391 344.832 232.578 344.832C233.88 344.832 235.026 344.552 236.016 343.992C237.005 343.419 237.5 342.54 237.5 341.355C237.5 340.457 237.103 339.773 236.309 339.305C235.801 339.018 234.798 338.686 233.301 338.309L230.508 337.605C228.724 337.163 227.409 336.668 226.562 336.121C225.052 335.171 224.297 333.855 224.297 332.176C224.297 330.197 225.007 328.595 226.426 327.371C227.858 326.147 229.779 325.535 232.188 325.535C235.339 325.535 237.611 326.46 239.004 328.309C239.876 329.48 240.299 330.743 240.273 332.098H236.953C236.888 331.303 236.608 330.581 236.113 329.93C235.306 329.005 233.906 328.543 231.914 328.543C230.586 328.543 229.577 328.797 228.887 329.305C228.21 329.812 227.871 330.483 227.871 331.316C227.871 332.228 228.32 332.957 229.219 333.504C229.74 333.829 230.508 334.116 231.523 334.363L233.848 334.93C236.374 335.542 238.066 336.134 238.926 336.707C240.293 337.605 240.977 339.018 240.977 340.945C240.977 342.807 240.267 344.415 238.848 345.77C237.441 347.124 235.293 347.801 232.402 347.801C229.29 347.801 227.083 347.098 225.781 345.691C224.492 344.272 223.802 342.521 223.711 340.438H227.09Z" fill="black"></path> <path d="M245.703 320.242H249.258V326.082H252.598V328.953H249.258V342.605C249.258 343.335 249.505 343.823 250 344.07C250.273 344.214 250.729 344.285 251.367 344.285C251.536 344.285 251.719 344.285 251.914 344.285C252.109 344.272 252.337 344.253 252.598 344.227V347C252.194 347.117 251.771 347.202 251.328 347.254C250.898 347.306 250.43 347.332 249.922 347.332C248.281 347.332 247.168 346.915 246.582 346.082C245.996 345.236 245.703 344.142 245.703 342.801V328.953H242.871V326.082H245.703V320.242Z" fill="black"></path> <path d="M258.828 341.434C258.828 342.449 259.199 343.25 259.941 343.836C260.684 344.422 261.562 344.715 262.578 344.715C263.815 344.715 265.013 344.428 266.172 343.855C268.125 342.905 269.102 341.349 269.102 339.188V336.355C268.672 336.629 268.118 336.857 267.441 337.039C266.764 337.221 266.1 337.352 265.449 337.43L263.32 337.703C262.044 337.872 261.087 338.139 260.449 338.504C259.368 339.116 258.828 340.092 258.828 341.434ZM267.344 334.324C268.151 334.22 268.691 333.882 268.965 333.309C269.121 332.996 269.199 332.547 269.199 331.961C269.199 330.763 268.77 329.897 267.91 329.363C267.064 328.816 265.846 328.543 264.258 328.543C262.422 328.543 261.12 329.038 260.352 330.027C259.922 330.574 259.642 331.388 259.512 332.469H256.23C256.296 329.891 257.129 328.1 258.73 327.098C260.345 326.082 262.214 325.574 264.336 325.574C266.797 325.574 268.796 326.043 270.332 326.98C271.855 327.918 272.617 329.376 272.617 331.355V343.406C272.617 343.771 272.689 344.064 272.832 344.285C272.988 344.507 273.307 344.617 273.789 344.617C273.945 344.617 274.121 344.611 274.316 344.598C274.512 344.572 274.72 344.539 274.941 344.5V347.098C274.395 347.254 273.978 347.352 273.691 347.391C273.405 347.43 273.014 347.449 272.52 347.449C271.309 347.449 270.43 347.02 269.883 346.16C269.596 345.704 269.395 345.06 269.277 344.227C268.561 345.164 267.533 345.978 266.191 346.668C264.85 347.358 263.372 347.703 261.758 347.703C259.818 347.703 258.229 347.117 256.992 345.945C255.768 344.76 255.156 343.283 255.156 341.512C255.156 339.572 255.762 338.068 256.973 337C258.184 335.932 259.772 335.275 261.738 335.027L267.344 334.324Z" fill="black"></path> <path d="M278.496 318.309H282.012V347H278.496V318.309Z" fill="black"></path> <path d="M685.764 305.34V300.623C690.207 300.19 693.306 299.472 695.061 298.47C696.815 297.444 698.125 295.04 698.991 291.258H703.845V339.998H697.282V305.34H685.764Z" fill="white"></path> <path d="M726.677 327.522C727.087 331.032 728.716 333.458 731.564 334.803C733.023 335.486 734.709 335.828 736.623 335.828C740.269 335.828 742.969 334.666 744.724 332.342C746.478 330.018 747.355 327.443 747.355 324.617C747.355 321.199 746.307 318.556 744.211 316.688C742.137 314.819 739.642 313.885 736.726 313.885C734.606 313.885 732.784 314.295 731.257 315.115C729.753 315.936 728.465 317.075 727.395 318.533L722.062 318.226L725.788 291.873H751.218V297.82H730.402L728.317 311.424C729.457 310.558 730.539 309.909 731.564 309.476C733.387 308.724 735.495 308.348 737.888 308.348C742.377 308.348 746.182 309.795 749.304 312.688C752.425 315.582 753.986 319.251 753.986 323.694C753.986 328.32 752.551 332.399 749.68 335.931C746.831 339.463 742.274 341.229 736.008 341.229C732.02 341.229 728.488 340.112 725.412 337.879C722.359 335.623 720.65 332.171 720.285 327.522H726.677Z" fill="white"></path> <path d="M759.899 317.337H777.058V323.66H759.899V317.337Z" fill="white"></path> <path d="M798.488 341.331C792.701 341.331 788.496 339.747 785.876 336.58C783.278 333.39 781.979 329.516 781.979 324.959H788.405C788.679 328.126 789.271 330.428 790.183 331.863C791.778 334.438 794.66 335.726 798.83 335.726C802.066 335.726 804.663 334.86 806.623 333.128C808.583 331.396 809.562 329.163 809.562 326.429C809.562 323.056 808.526 320.698 806.452 319.354C804.401 318.009 801.542 317.337 797.873 317.337C797.463 317.337 797.041 317.348 796.608 317.371C796.198 317.371 795.777 317.382 795.344 317.405V311.971C795.982 312.039 796.517 312.085 796.95 312.107C797.383 312.13 797.85 312.142 798.352 312.142C800.653 312.142 802.544 311.777 804.025 311.048C806.623 309.772 807.922 307.493 807.922 304.212C807.922 301.774 807.056 299.894 805.324 298.572C803.592 297.251 801.576 296.59 799.274 296.59C795.173 296.59 792.336 297.957 790.764 300.691C789.898 302.195 789.408 304.337 789.294 307.117H783.21C783.21 303.471 783.939 300.372 785.397 297.82C787.904 293.263 792.313 290.984 798.625 290.984C803.615 290.984 807.478 292.101 810.212 294.334C812.946 296.544 814.313 299.757 814.313 303.973C814.313 306.98 813.505 309.419 811.887 311.287C810.884 312.449 809.585 313.361 807.99 314.021C810.565 314.728 812.57 316.095 814.006 318.123C815.464 320.128 816.193 322.589 816.193 325.506C816.193 330.177 814.655 333.982 811.579 336.922C808.503 339.861 804.139 341.331 798.488 341.331Z" fill="white"></path> <path d="M838.308 311.561C841.019 311.561 843.138 310.809 844.665 309.305C846.192 307.778 846.955 305.966 846.955 303.87C846.955 302.047 846.226 300.372 844.768 298.846C843.309 297.319 841.088 296.556 838.103 296.556C835.14 296.556 832.998 297.319 831.677 298.846C830.355 300.372 829.694 302.161 829.694 304.212C829.694 306.513 830.549 308.313 832.258 309.612C833.967 310.911 835.983 311.561 838.308 311.561ZM838.684 335.794C841.532 335.794 843.89 335.031 845.759 333.504C847.65 331.954 848.596 329.653 848.596 326.6C848.596 323.432 847.627 321.028 845.69 319.388C843.754 317.747 841.27 316.927 838.239 316.927C835.3 316.927 832.896 317.77 831.027 319.456C829.182 321.119 828.259 323.432 828.259 326.395C828.259 328.947 829.102 331.157 830.788 333.025C832.497 334.871 835.129 335.794 838.684 335.794ZM829.934 313.919C828.225 313.19 826.892 312.335 825.935 311.355C824.134 309.533 823.234 307.163 823.234 304.246C823.234 300.6 824.556 297.467 827.199 294.847C829.842 292.226 833.591 290.916 838.444 290.916C843.138 290.916 846.818 292.158 849.484 294.642C852.15 297.103 853.483 299.985 853.483 303.289C853.483 306.342 852.709 308.815 851.159 310.706C850.293 311.777 848.949 312.825 847.126 313.851C849.154 314.785 850.749 315.856 851.911 317.063C854.076 319.342 855.158 322.304 855.158 325.95C855.158 330.257 853.711 333.914 850.817 336.922C847.924 339.907 843.833 341.399 838.547 341.399C833.785 341.399 829.751 340.112 826.447 337.537C823.166 334.939 821.525 331.18 821.525 326.258C821.525 323.364 822.232 320.869 823.645 318.772C825.057 316.653 827.154 315.035 829.934 313.919Z" fill="white"></path> <path d="M864.934 305.34V300.623C869.377 300.19 872.476 299.472 874.23 298.47C875.985 297.444 877.295 295.04 878.161 291.258H883.015V339.998H876.452V305.34H864.934Z" fill="white"></path> <path d="M933.806 291.873V297.239C932.233 298.766 930.137 301.421 927.517 305.203C924.919 308.986 922.618 313.064 920.612 317.439C918.63 321.701 917.126 325.586 916.101 329.095C915.44 331.351 914.585 334.985 913.537 339.998H906.735C908.285 330.656 911.703 321.359 916.989 312.107C920.111 306.684 923.392 302.002 926.833 298.06H899.763V291.873H933.806Z" fill="white"></path> <path d="M960.979 289.788H967.78V334.017H993.21V339.998H960.979V289.788Z" fill="white"></path> <path d="M1003.84 330.257C1003.84 332.034 1004.49 333.436 1005.79 334.461C1007.09 335.486 1008.62 335.999 1010.4 335.999C1012.57 335.999 1014.66 335.498 1016.69 334.495C1020.11 332.832 1021.82 330.109 1021.82 326.326V321.37C1021.07 321.849 1020.1 322.247 1018.91 322.566C1017.73 322.885 1016.57 323.113 1015.43 323.25L1011.7 323.729C1009.47 324.025 1007.79 324.492 1006.68 325.13C1004.79 326.201 1003.84 327.91 1003.84 330.257ZM1018.74 317.815C1020.15 317.633 1021.1 317.041 1021.58 316.038C1021.85 315.491 1021.99 314.705 1021.99 313.68C1021.99 311.583 1021.24 310.068 1019.73 309.134C1018.25 308.177 1016.12 307.698 1013.34 307.698C1010.13 307.698 1007.85 308.564 1006.51 310.296C1005.75 311.253 1005.26 312.677 1005.04 314.568H999.294C999.408 310.057 1000.87 306.924 1003.67 305.169C1006.49 303.392 1009.76 302.503 1013.48 302.503C1017.79 302.503 1021.28 303.323 1023.97 304.964C1026.64 306.604 1027.97 309.157 1027.97 312.62V333.709C1027.97 334.347 1028.1 334.86 1028.35 335.247C1028.62 335.634 1029.18 335.828 1030.02 335.828C1030.29 335.828 1030.6 335.817 1030.94 335.794C1031.29 335.748 1031.65 335.691 1032.04 335.623V340.169C1031.08 340.442 1030.35 340.613 1029.85 340.682C1029.35 340.75 1028.67 340.784 1027.8 340.784C1025.68 340.784 1024.14 340.032 1023.19 338.528C1022.68 337.731 1022.33 336.603 1022.13 335.145C1020.87 336.785 1019.07 338.209 1016.73 339.417C1014.38 340.625 1011.79 341.229 1008.97 341.229C1005.57 341.229 1002.79 340.203 1000.63 338.152C998.485 336.079 997.414 333.493 997.414 330.394C997.414 326.998 998.474 324.367 1000.59 322.498C1002.71 320.63 1005.49 319.479 1008.93 319.046L1018.74 317.815Z" fill="white"></path> <path d="M1041.1 303.392L1050.87 333.196L1061.09 303.392H1067.82L1054.02 339.998H1047.45L1033.95 303.392H1041.1Z" fill="white"></path> <path d="M1088.33 302.571C1090.93 302.571 1093.45 303.187 1095.89 304.417C1098.32 305.625 1100.18 307.197 1101.46 309.134C1102.69 310.979 1103.51 313.133 1103.92 315.594C1104.28 317.28 1104.46 319.969 1104.46 323.66H1077.63C1077.75 327.374 1078.62 330.359 1080.27 332.615C1081.91 334.848 1084.45 335.965 1087.89 335.965C1091.1 335.965 1093.66 334.905 1095.58 332.786C1096.67 331.556 1097.45 330.132 1097.9 328.514H1103.95C1103.79 329.858 1103.26 331.362 1102.35 333.025C1101.46 334.666 1100.45 336.01 1099.34 337.059C1097.47 338.882 1095.16 340.112 1092.4 340.75C1090.92 341.115 1089.24 341.297 1087.38 341.297C1082.82 341.297 1078.96 339.645 1075.79 336.341C1072.62 333.014 1071.04 328.366 1071.04 322.396C1071.04 316.517 1072.63 311.743 1075.82 308.074C1079.01 304.406 1083.18 302.571 1088.33 302.571ZM1098.14 318.772C1097.89 316.106 1097.31 313.976 1096.4 312.381C1094.71 309.419 1091.9 307.938 1087.96 307.938C1085.13 307.938 1082.76 308.963 1080.85 311.014C1078.93 313.042 1077.92 315.628 1077.8 318.772H1098.14Z" fill="white"></path> <path d="M1112.05 303.392H1117.9V308.587C1119.63 306.445 1121.46 304.907 1123.4 303.973C1125.34 303.038 1127.49 302.571 1129.86 302.571C1135.06 302.571 1138.56 304.383 1140.39 308.006C1141.39 309.988 1141.89 312.825 1141.89 316.517V339.998H1135.64V316.927C1135.64 314.694 1135.31 312.894 1134.65 311.526C1133.55 309.248 1131.57 308.108 1128.7 308.108C1127.24 308.108 1126.04 308.257 1125.11 308.553C1123.42 309.054 1121.94 310.057 1120.67 311.561C1119.64 312.768 1118.97 314.021 1118.65 315.32C1118.35 316.596 1118.21 318.431 1118.21 320.823V339.998H1112.05V303.392Z" fill="white"></path> <path d="M1154.91 322.122C1154.91 326.041 1155.75 329.323 1157.41 331.966C1159.07 334.609 1161.74 335.931 1165.41 335.931C1168.26 335.931 1170.59 334.712 1172.41 332.273C1174.26 329.812 1175.18 326.292 1175.18 321.712C1175.18 317.086 1174.24 313.668 1172.35 311.458C1170.45 309.225 1168.12 308.108 1165.34 308.108C1162.24 308.108 1159.72 309.293 1157.79 311.663C1155.87 314.033 1154.91 317.519 1154.91 322.122ZM1164.18 302.742C1166.98 302.742 1169.33 303.335 1171.22 304.52C1172.31 305.203 1173.55 306.399 1174.94 308.108V289.617H1180.86V339.998H1175.32V334.905C1173.88 337.161 1172.19 338.79 1170.23 339.793C1168.27 340.796 1166.02 341.297 1163.49 341.297C1159.41 341.297 1155.88 339.588 1152.9 336.17C1149.91 332.729 1148.42 328.16 1148.42 322.464C1148.42 317.132 1149.78 312.518 1152.49 308.621C1155.22 304.702 1159.12 302.742 1164.18 302.742Z" fill="white"></path> <path d="M1205.23 302.571C1207.82 302.571 1210.34 303.187 1212.78 304.417C1215.22 305.625 1217.08 307.197 1218.35 309.134C1219.58 310.979 1220.4 313.133 1220.81 315.594C1221.18 317.28 1221.36 319.969 1221.36 323.66H1194.53C1194.64 327.374 1195.52 330.359 1197.16 332.615C1198.8 334.848 1201.34 335.965 1204.78 335.965C1208 335.965 1210.56 334.905 1212.47 332.786C1213.57 331.556 1214.34 330.132 1214.8 328.514H1220.85C1220.69 329.858 1220.15 331.362 1219.24 333.025C1218.35 334.666 1217.35 336.01 1216.23 337.059C1214.36 338.882 1212.05 340.112 1209.29 340.75C1207.81 341.115 1206.14 341.297 1204.27 341.297C1199.71 341.297 1195.85 339.645 1192.68 336.341C1189.52 333.014 1187.93 328.366 1187.93 322.396C1187.93 316.517 1189.53 311.743 1192.72 308.074C1195.91 304.406 1200.08 302.571 1205.23 302.571ZM1215.04 318.772C1214.79 316.106 1214.2 313.976 1213.29 312.381C1211.61 309.419 1208.79 307.938 1204.85 307.938C1202.03 307.938 1199.66 308.963 1197.74 311.014C1195.83 313.042 1194.81 315.628 1194.7 318.772H1215.04Z" fill="white"></path> <path d="M1229.12 303.392H1234.96V309.715C1235.44 308.484 1236.61 306.992 1238.48 305.237C1240.35 303.46 1242.51 302.571 1244.94 302.571C1245.06 302.571 1245.25 302.583 1245.52 302.605C1245.8 302.628 1246.26 302.674 1246.93 302.742V309.236C1246.56 309.168 1246.22 309.122 1245.9 309.1C1245.6 309.077 1245.27 309.065 1244.91 309.065C1241.81 309.065 1239.43 310.068 1237.77 312.073C1236.1 314.056 1235.27 316.346 1235.27 318.943V339.998H1229.12V303.392Z" fill="white"></path> <path d="M65.7422 541.291V537.248C69.5508 536.877 72.207 536.262 73.7109 535.402C75.2148 534.523 76.3379 532.463 77.0801 529.221H81.2402V570.998H75.6152V541.291H65.7422Z" fill="white"></path> <path d="M113.232 556.145V537.131L99.7852 556.145H113.232ZM113.32 570.998V560.744H94.9219V555.588L114.141 528.928H118.594V556.145H124.775V560.744H118.594V570.998H113.32Z" fill="white"></path> <path d="M129.287 551.574H143.994V556.994H129.287V551.574Z" fill="white"></path> <path d="M148.652 570.998C148.848 567.385 149.59 564.24 150.879 561.564C152.188 558.889 154.727 556.457 158.496 554.27L164.121 551.018C166.641 549.553 168.408 548.303 169.424 547.268C171.025 545.646 171.826 543.791 171.826 541.701C171.826 539.26 171.094 537.326 169.629 535.9C168.164 534.455 166.211 533.732 163.77 533.732C160.156 533.732 157.656 535.1 156.27 537.834C155.527 539.299 155.117 541.33 155.039 543.928H149.678C149.736 540.275 150.41 537.297 151.699 534.992C153.984 530.93 158.018 528.898 163.799 528.898C168.604 528.898 172.109 530.197 174.316 532.795C176.543 535.393 177.656 538.283 177.656 541.467C177.656 544.826 176.475 547.697 174.111 550.08C172.744 551.467 170.293 553.146 166.758 555.119L162.744 557.346C160.83 558.4 159.326 559.406 158.232 560.363C156.279 562.062 155.049 563.947 154.541 566.018H177.451V570.998H148.652Z" fill="white"></path> <path d="M195.762 572.141C190.801 572.141 187.197 570.783 184.951 568.068C182.725 565.334 181.611 562.014 181.611 558.107H187.119C187.354 560.822 187.861 562.795 188.643 564.025C190.01 566.232 192.48 567.336 196.055 567.336C198.828 567.336 201.055 566.594 202.734 565.109C204.414 563.625 205.254 561.711 205.254 559.367C205.254 556.477 204.365 554.455 202.588 553.303C200.83 552.15 198.379 551.574 195.234 551.574C194.883 551.574 194.521 551.584 194.15 551.604C193.799 551.604 193.438 551.613 193.066 551.633V546.975C193.613 547.033 194.072 547.072 194.443 547.092C194.814 547.111 195.215 547.121 195.645 547.121C197.617 547.121 199.238 546.809 200.508 546.184C202.734 545.09 203.848 543.137 203.848 540.324C203.848 538.234 203.105 536.623 201.621 535.49C200.137 534.357 198.408 533.791 196.436 533.791C192.92 533.791 190.488 534.963 189.141 537.307C188.398 538.596 187.979 540.432 187.881 542.814H182.666C182.666 539.689 183.291 537.033 184.541 534.846C186.689 530.939 190.469 528.986 195.879 528.986C200.156 528.986 203.467 529.943 205.811 531.857C208.154 533.752 209.326 536.506 209.326 540.119C209.326 542.697 208.633 544.787 207.246 546.389C206.387 547.385 205.273 548.166 203.906 548.732C206.113 549.338 207.832 550.51 209.062 552.248C210.312 553.967 210.938 556.076 210.938 558.576C210.938 562.58 209.619 565.842 206.982 568.361C204.346 570.881 200.605 572.141 195.762 572.141Z" fill="white"></path> <path d="M219.316 541.291V537.248C223.125 536.877 225.781 536.262 227.285 535.402C228.789 534.523 229.912 532.463 230.654 529.221H234.814V570.998H229.189V541.291H219.316Z" fill="white"></path> <path d="M248.262 541.291V537.248C252.07 536.877 254.727 536.262 256.23 535.402C257.734 534.523 258.857 532.463 259.6 529.221H263.76V570.998H258.135V541.291H248.262Z" fill="white"></path> <path d="M297.744 527.961H317.109C320.938 527.961 324.023 529.045 326.367 531.213C328.711 533.361 329.883 536.389 329.883 540.295C329.883 543.654 328.838 546.584 326.748 549.084C324.658 551.564 321.445 552.805 317.109 552.805H303.574V570.998H297.744V527.961ZM323.994 540.324C323.994 537.16 322.822 535.012 320.479 533.879C319.189 533.273 317.422 532.971 315.176 532.971H303.574V547.883H315.176C317.793 547.883 319.912 547.326 321.533 546.213C323.174 545.1 323.994 543.137 323.994 540.324Z" fill="white"></path> <path d="M336.65 539.621H341.66V545.041C342.07 543.986 343.076 542.707 344.678 541.203C346.279 539.68 348.125 538.918 350.215 538.918C350.312 538.918 350.479 538.928 350.713 538.947C350.947 538.967 351.348 539.006 351.914 539.064V544.631C351.602 544.572 351.309 544.533 351.035 544.514C350.781 544.494 350.498 544.484 350.186 544.484C347.529 544.484 345.488 545.344 344.062 547.062C342.637 548.762 341.924 550.725 341.924 552.951V570.998H336.65V539.621Z" fill="white"></path> <path d="M356.484 539.768H361.846V570.998H356.484V539.768ZM356.484 527.961H361.846V533.938H356.484V527.961Z" fill="white"></path> <path d="M367.5 566.838L386.104 544.338H368.877V539.621H393.193V543.928L374.707 566.281H393.75V570.998H367.5V566.838Z" fill="white"></path> <path d="M399.844 539.621H405.059V544.074C406.309 542.531 407.441 541.408 408.457 540.705C410.195 539.514 412.168 538.918 414.375 538.918C416.875 538.918 418.887 539.533 420.41 540.764C421.27 541.467 422.051 542.502 422.754 543.869C423.926 542.189 425.303 540.949 426.885 540.148C428.467 539.328 430.244 538.918 432.217 538.918C436.436 538.918 439.307 540.441 440.83 543.488C441.65 545.129 442.061 547.336 442.061 550.109V570.998H436.582V549.201C436.582 547.111 436.055 545.676 435 544.895C433.965 544.113 432.695 543.723 431.191 543.723C429.121 543.723 427.334 544.416 425.83 545.803C424.346 547.189 423.604 549.504 423.604 552.746V570.998H418.242V550.52C418.242 548.391 417.988 546.838 417.48 545.861C416.68 544.396 415.186 543.664 412.998 543.664C411.006 543.664 409.189 544.436 407.549 545.979C405.928 547.521 405.117 550.314 405.117 554.357V570.998H399.844V539.621Z" fill="white"></path> <path d="M467.783 527.961H487.148C490.977 527.961 494.062 529.045 496.406 531.213C498.75 533.361 499.922 536.389 499.922 540.295C499.922 543.654 498.877 546.584 496.787 549.084C494.697 551.564 491.484 552.805 487.148 552.805H473.613V570.998H467.783V527.961ZM494.033 540.324C494.033 537.16 492.861 535.012 490.518 533.879C489.229 533.273 487.461 532.971 485.215 532.971H473.613V547.883H485.215C487.832 547.883 489.951 547.326 491.572 546.213C493.213 545.1 494.033 543.137 494.033 540.324Z" fill="white"></path> <path d="M506.543 539.768H511.904V570.998H506.543V539.768ZM506.543 527.961H511.904V533.938H506.543V527.961Z" fill="white"></path> <path d="M519.902 539.621H524.912V544.074C526.396 542.238 527.969 540.92 529.629 540.119C531.289 539.318 533.135 538.918 535.166 538.918C539.619 538.918 542.627 540.471 544.189 543.576C545.049 545.275 545.479 547.707 545.479 550.871V570.998H540.117V551.223C540.117 549.309 539.834 547.766 539.268 546.594C538.33 544.641 536.631 543.664 534.17 543.664C532.92 543.664 531.895 543.791 531.094 544.045C529.648 544.475 528.379 545.334 527.285 546.623C526.406 547.658 525.83 548.732 525.557 549.846C525.303 550.939 525.176 552.512 525.176 554.562V570.998H519.902V539.621Z" fill="white"></path> <path d="M553.184 527.961H558.252V552.951L571.787 539.621H578.525L566.514 551.369L579.199 570.998H572.461L562.676 555.178L558.252 559.221V570.998H553.184V527.961Z" fill="white"></path> <path d="M61.25 281C61.3802 278.591 61.875 276.495 62.7344 274.711C63.6068 272.927 65.2995 271.306 67.8125 269.848L71.5625 267.68C73.2422 266.703 74.4206 265.87 75.0977 265.18C76.1654 264.099 76.6992 262.862 76.6992 261.469C76.6992 259.841 76.2109 258.552 75.2344 257.602C74.2578 256.638 72.9557 256.156 71.3281 256.156C68.9193 256.156 67.2526 257.068 66.3281 258.891C65.8333 259.867 65.5599 261.221 65.5078 262.953H61.9336C61.9727 260.518 62.4219 258.533 63.2812 256.996C64.8047 254.288 67.4935 252.934 71.3477 252.934C74.5508 252.934 76.888 253.799 78.3594 255.531C79.8438 257.263 80.5859 259.19 80.5859 261.312C80.5859 263.552 79.7982 265.466 78.2227 267.055C77.3112 267.979 75.6771 269.099 73.3203 270.414L70.6445 271.898C69.3685 272.602 68.3659 273.272 67.6367 273.91C66.3346 275.043 65.5143 276.299 65.1758 277.68H80.4492V281H61.25Z" fill="black"></path> <path d="M93.0859 253.031C96.7057 253.031 99.3229 254.522 100.938 257.504C102.188 259.809 102.812 262.966 102.812 266.977C102.812 270.779 102.246 273.923 101.113 276.41C99.4727 279.978 96.7904 281.762 93.0664 281.762C89.707 281.762 87.207 280.303 85.5664 277.387C84.1992 274.952 83.5156 271.684 83.5156 267.582C83.5156 264.405 83.9258 261.677 84.7461 259.398C86.2826 255.154 89.0625 253.031 93.0859 253.031ZM93.0469 278.559C94.8698 278.559 96.3216 277.751 97.4023 276.137C98.4831 274.522 99.0234 271.514 99.0234 267.113C99.0234 263.936 98.6328 261.326 97.8516 259.281C97.0703 257.224 95.5534 256.195 93.3008 256.195C91.2305 256.195 89.7135 257.172 88.75 259.125C87.7995 261.065 87.3242 263.93 87.3242 267.719C87.3242 270.57 87.6302 272.862 88.2422 274.594C89.1797 277.237 90.7812 278.559 93.0469 278.559Z" fill="black"></path> <path d="M106.191 268.051H115.996V271.664H106.191V268.051Z" fill="black"></path> <path d="M128.672 253.031C132.292 253.031 134.909 254.522 136.523 257.504C137.773 259.809 138.398 262.966 138.398 266.977C138.398 270.779 137.832 273.923 136.699 276.41C135.059 279.978 132.376 281.762 128.652 281.762C125.293 281.762 122.793 280.303 121.152 277.387C119.785 274.952 119.102 271.684 119.102 267.582C119.102 264.405 119.512 261.677 120.332 259.398C121.868 255.154 124.648 253.031 128.672 253.031ZM128.633 278.559C130.456 278.559 131.908 277.751 132.988 276.137C134.069 274.522 134.609 271.514 134.609 267.113C134.609 263.936 134.219 261.326 133.438 259.281C132.656 257.224 131.139 256.195 128.887 256.195C126.816 256.195 125.299 257.172 124.336 259.125C123.385 261.065 122.91 263.93 122.91 267.719C122.91 270.57 123.216 272.862 123.828 274.594C124.766 277.237 126.367 278.559 128.633 278.559Z" fill="black"></path> <path d="M150.938 253.031C154.557 253.031 157.174 254.522 158.789 257.504C160.039 259.809 160.664 262.966 160.664 266.977C160.664 270.779 160.098 273.923 158.965 276.41C157.324 279.978 154.642 281.762 150.918 281.762C147.559 281.762 145.059 280.303 143.418 277.387C142.051 274.952 141.367 271.684 141.367 267.582C141.367 264.405 141.777 261.677 142.598 259.398C144.134 255.154 146.914 253.031 150.938 253.031ZM150.898 278.559C152.721 278.559 154.173 277.751 155.254 276.137C156.335 274.522 156.875 271.514 156.875 267.113C156.875 263.936 156.484 261.326 155.703 259.281C154.922 257.224 153.405 256.195 151.152 256.195C149.082 256.195 147.565 257.172 146.602 259.125C145.651 261.065 145.176 263.93 145.176 267.719C145.176 270.57 145.482 272.862 146.094 274.594C147.031 277.237 148.633 278.559 150.898 278.559Z" fill="black"></path> <path d="M173.262 264.75C174.811 264.75 176.022 264.32 176.895 263.461C177.767 262.589 178.203 261.553 178.203 260.355C178.203 259.314 177.786 258.357 176.953 257.484C176.12 256.612 174.85 256.176 173.145 256.176C171.452 256.176 170.228 256.612 169.473 257.484C168.717 258.357 168.34 259.379 168.34 260.551C168.34 261.866 168.828 262.895 169.805 263.637C170.781 264.379 171.934 264.75 173.262 264.75ZM173.477 278.598C175.104 278.598 176.452 278.161 177.52 277.289C178.6 276.404 179.141 275.089 179.141 273.344C179.141 271.534 178.587 270.16 177.48 269.223C176.374 268.285 174.954 267.816 173.223 267.816C171.543 267.816 170.169 268.298 169.102 269.262C168.047 270.212 167.52 271.534 167.52 273.227C167.52 274.685 168.001 275.948 168.965 277.016C169.941 278.07 171.445 278.598 173.477 278.598ZM168.477 266.098C167.5 265.681 166.738 265.193 166.191 264.633C165.163 263.591 164.648 262.237 164.648 260.57C164.648 258.487 165.404 256.697 166.914 255.199C168.424 253.702 170.566 252.953 173.34 252.953C176.022 252.953 178.125 253.663 179.648 255.082C181.172 256.488 181.934 258.135 181.934 260.023C181.934 261.768 181.491 263.181 180.605 264.262C180.111 264.874 179.342 265.473 178.301 266.059C179.46 266.592 180.371 267.204 181.035 267.895C182.272 269.197 182.891 270.889 182.891 272.973C182.891 275.434 182.064 277.523 180.41 279.242C178.757 280.948 176.419 281.801 173.398 281.801C170.677 281.801 168.372 281.065 166.484 279.594C164.609 278.109 163.672 275.961 163.672 273.148C163.672 271.495 164.076 270.069 164.883 268.871C165.69 267.66 166.888 266.736 168.477 266.098Z" fill="black"></path> <path d="M205.566 253.5V256.566C204.668 257.439 203.47 258.956 201.973 261.117C200.488 263.279 199.173 265.609 198.027 268.109C196.895 270.544 196.035 272.764 195.449 274.77C195.072 276.059 194.583 278.135 193.984 281H190.098C190.983 275.661 192.936 270.349 195.957 265.062C197.741 261.964 199.616 259.288 201.582 257.035H186.113V253.5H205.566Z" fill="black"></path> </svg> 