<?xml version="1.0" encoding="UTF-8"?> <!-- Generator: Adobe Illustrator 18.0.0, SVG Export Plug-In . SVG Version: 6.00 Build 0) --> <svg xmlns="http://www.w3.org/2000/svg" xmlns:xlink="http://www.w3.org/1999/xlink" id="Слой_1" x="0px" y="0px" width="229.4px" height="34.2px" viewBox="0 0 229.4 34.2" xml:space="preserve"> <g> <path fill-rule="evenodd" clip-rule="evenodd" d="M8.3,7h5.3c2,0,4.4,0,5.6,1.8c0.4,0.7,0.9,1.4,1,3c0,2.8-1.2,4.4-4,4.9 c-0.8,0.1-1.3,0.2-2.9,0.2l-4.9,0L8.3,7L8.3,7L8.3,7z M0,1.1v32.1h8.3V22.7l5.5,0c4.8-0.1,9.5-0.3,12.5-4.6c1.9-2.5,2-5.3,2-6.4 c0-3.2-1.1-5.5-1.9-6.5c-0.5-0.9-1.1-1.3-1.4-1.6c-2.6-2.1-5.5-2.4-8.6-2.4L0,1.1L0,1.1L0,1.1z M37.2,22.3c0.9-2.6,1.8-5.3,2.5-7.9 c0.5-1.9,1.1-3.8,1.6-5.6l4.4,13.6L37.2,22.3L37.2,22.3L37.2,22.3z M45.7,1.1h-8.6L24.9,33.2h8.8l1.7-5.1l12.2,0l1.7,5.1l8.8,0 L45.7,1.1L45.7,1.1z M68.7,1.1h-8.1v32.1h8L68.2,13c0.9,1.7,1.8,3.4,2.8,5.1c0.9,1.6,1.9,3.3,3,5l6.2,10.2h8.1V1.1h-7.9l0.3,20.7 c-1.5-3-3.3-6-4.9-8.8L68.7,1.1L68.7,1.1L68.7,1.1z M91.3,1.1v6.3h8.5v25.8h8.3V7.4h8.6V1.1H91.3L91.3,1.1z M141.5,17.9 c0,2.7-0.7,5.2-2.5,7.1c-2.1,2.2-4.7,2.4-5.7,2.4c-2.2,0-4.2-0.8-5.6-2.3c-1.3-1.4-2.7-3.8-2.7-8.2c0-3.4,1.1-7.4,4.5-9.1 c0.6-0.3,1.9-0.9,3.6-0.9c0.5,0,1.8,0,3.2,0.6c1.8,0.8,2.8,1.9,3.2,2.4C140.4,11.1,141.7,13.9,141.5,17.9L141.5,17.9L141.5,17.9z M143.6,30.8c4-3.2,6.2-8.5,6.2-13.5c0-4.4-1.8-9.6-4.9-12.8C143.1,2.8,139.3,0,133,0c-7.7,0-11.4,4.2-13.1,6.6 c-2.9,4.2-3.1,8.7-3.1,10.4c0,1.9,0.2,8.1,4.7,12.6c4.2,4.3,9.7,4.6,11.6,4.6C138.6,34.2,141.8,32.2,143.6,30.8L143.6,30.8 L143.6,30.8z M161.9,1.1h-8.1v32.1h8L161.4,13c1,1.7,1.9,3.4,2.8,5.1c0.9,1.6,2,3.3,3,5l6.1,10.2h8.1V1.1h-7.9l0.3,20.7 c-1.5-3-3.2-6-4.9-8.8L161.9,1.1L161.9,1.1L161.9,1.1z M187,1.1v32.1h25.9v-6.3h-17.7v-7.7h15.2v-6.1h-15.2V7.3h16.2V1.1L187,1.1 L187,1.1L187,1.1z"></path> <path fill-rule="evenodd" clip-rule="evenodd" d="M222.1,0.4c4,0,7.3,3.3,7.3,7.3s-3.3,7.3-7.3,7.3s-7.3-3.3-7.3-7.3 C214.8,3.7,218.1,0.4,222.1,0.4L222.1,0.4L222.1,0.4z M222.1,13.4c3.3,0,5.6-2.5,5.6-5.7c0-3.2-2.3-5.7-5.6-5.7 c-3.3,0-5.6,2.5-5.6,5.7C216.5,10.9,218.8,13.4,222.1,13.4L222.1,13.4L222.1,13.4z M219.2,3.6h3.1c2.1,0,3.1,0.7,3.1,2.4 c0,1.5-0.9,2.1-2.1,2.2l2.2,3.6l-1.8,0l-2.1-3.6l-0.9,0v3.6l-1.6,0L219.2,3.6L219.2,3.6L219.2,3.6z M222.2,7.1 c0.8,0,1.6-0.1,1.6-1.3c0-1-0.9-1.1-1.6-1.1l-1.4,0v2.4L222.2,7.1L222.2,7.1z"></path> </g> </svg> 