<?xml version="1.0" encoding="UTF-8"?> <!-- Generator: Adobe Illustrator 16.0.0, SVG Export Plug-In . SVG Version: 6.00 Build 0) --> <svg xmlns="http://www.w3.org/2000/svg" xmlns:xlink="http://www.w3.org/1999/xlink" baseProfile="tiny" id="Слой_1" x="0px" y="0px" width="1000px" height="1000px" viewBox="0 0 1000 1000" xml:space="preserve"> <g> <path fill="#FFFFFF" d="M311.545,260.746h225.92c47.367,0,86.029,10.624,115.977,31.843c29.939,21.236,44.92,54.869,44.92,100.896 c0,28.606-6.936,53.075-20.783,73.406c-13.857,20.341-33.303,34.976-58.326,43.909c11.617,2.683,21.674,6.706,30.17,12.07 c8.484,5.36,15.082,11.176,19.779,17.427c4.689,6.264,8.596,14.312,11.729,24.137c3.123,9.834,5.246,18.436,6.369,25.809 c1.107,7.375,2.113,17.094,3.014,29.162c0.441,3.131,1.01,9.164,1.678,18.104c0.668,8.941,1.109,14.861,1.34,17.762 c0.221,2.914,0.67,7.943,1.342,15.084c0.67,7.156,1.225,12.18,1.674,15.086c0.441,2.91,1.227,7.15,2.352,12.734 c1.107,5.596,2.113,9.838,3.014,12.736c0.891,2.916,2.014,6.266,3.35,10.059c1.342,3.801,2.906,7.039,4.697,9.721 c1.777,2.682,3.791,5.141,6.031,7.375h-89.83c-1.34-1.785-2.578-3.906-3.688-6.371c-1.121-2.451-2.127-5.133-3.02-8.043 c-0.898-2.904-1.572-5.582-2.008-8.045c-0.449-2.451-1.01-5.803-1.678-10.057c-0.668-4.242-1.117-7.707-1.34-10.389 c-0.234-2.684-0.564-6.707-1.006-12.068c-0.449-5.363-0.785-9.387-1.006-12.068c-0.23-2.68-0.568-7.375-1.004-14.076 c-0.451-6.707-0.674-11.398-0.674-14.08c-2.24-38.881-10.387-65.582-24.467-80.111c-14.08-14.518-40.791-21.787-80.113-21.787 H394.672v197.096h-83.127V260.746z M394.672,329.126v149.499h110.617c16.086,0,29.715-0.891,40.891-2.682 c11.166-1.782,22.459-5.028,33.857-9.72c11.396-4.696,20.113-12.402,26.145-23.132c6.033-10.725,9.047-24.35,9.047-40.89 c0-15.189-2.68-27.824-8.041-37.88c-5.365-10.057-13.076-17.536-23.127-22.455c-10.059-4.915-20.346-8.265-30.838-10.056 c-10.508-1.782-22.91-2.683-37.209-2.683H394.672z"></path> </g> <g> <path fill="#FFFFFF" d="M500.002,955.18c-250.986,0-455.182-204.195-455.182-455.182c0-250.986,204.195-455.177,455.182-455.177 S955.18,249.011,955.18,499.998C955.18,750.984,750.988,955.18,500.002,955.18z M500.002,119.309 c-209.914,0-380.694,170.774-380.694,380.689s170.78,380.694,380.694,380.694c209.916,0,380.689-170.779,380.689-380.694 S709.918,119.309,500.002,119.309z"></path> </g> </svg> 